<?xml version="1.0" encoding="utf-8"?>
<!-- Generator: Adobe Illustrator 22.0.1, SVG Export Plug-In . SVG Version: 6.00 Build 0)  -->
<svg version="1.1" id="Capa_1" xmlns="http://www.w3.org/2000/svg" xmlns:xlink="http://www.w3.org/1999/xlink" x="0px" y="0px"
	 viewBox="0 0 512 512" style="enable-background:new 0 0 512 512;" xml:space="preserve">
<style type="text/css">
	.st0{fill:#393939;}
	.st1{fill:#868DAD;}
</style>
<g>
	<title>Layer 1</title>
	<g id="svg_4">
		<g id="Your_Icon">
			<g id="Layer_5_1_">
				<path class="st0" d="M447.7,209.2c0,132.2-128,143.2-183.2,293.7c-2.6,7.6-12.5,7.6-15.9,0C181.7,351.4,75.3,341.5,65.2,226
					c-8.4-99.6,58.6-189.2,157.3-205.9C344,0,448.5,92.9,447.7,209.2z"/>
			</g>
		</g>
	</g>
</g>
<path class="st1" d="M456.2,208.1c0,3.4,0,7.1-0.3,10.5c-0.3,5.8-5.1,10.3-11.1,10.3h-0.2c-6,0-10.5-5.5-10.1-11.4
	c0.2-3.1,0.3-6.3,0.3-9.3c0-34.6-10-67.1-27-94.6c-5.3,2.4-11.3,3.7-17.5,3.7c-24.1,0-43.6-19.5-43.6-43.6c0-6.3,1.3-12.2,3.7-17.5
	c-27.3-17.2-59.8-27-94.4-27c-98.6,0-178.9,80.1-178.9,178.9C77.1,306.7,157.4,387,256,387c29.9,0,59.5-7.6,85.6-21.7
	c5.1-2.9,11.6-1.1,14.5,4s1.1,11.6-4,14.5c0,0-0.2,0-0.2,0.2c-29.4,16.1-62.4,24.5-95.9,24.5c-110.3,0-200.1-89.8-200.1-200.1
	S145.6,8,256,8c39.6,0,76.6,11.6,107.6,31.4c7.4-5.8,16.7-9.2,26.7-9.2c24.1,0,43.6,19.5,43.6,43.6c0,10.1-3.4,19.3-9.2,26.7
	C444.7,131.5,456.2,168.5,456.2,208.1z"/>
<g>
	<g id="XMLID_2_">
		<path id="XMLID_362_" class="st1" d="M255.5,122.6c-0.3,0-0.3,0-0.6,0.3C254.9,122.6,255.2,122.6,255.5,122.6z"/>
		<path id="XMLID_361_" class="st1" d="M255.5,123.6c0-0.3,0.3,0,0.6,0C256.1,123.9,255.8,123.6,255.5,123.6z"/>
		<path id="XMLID_360_" class="st1" d="M255.2,123.6l-0.3,0.3C254.9,123.9,254.9,123.6,255.2,123.6z"/>
		<path id="XMLID_359_" class="st1" d="M259.1,125.4c0.3,0.3,0.3,1.2,0.3,1.8c-0.3-0.3,0-0.6,0-0.9
			C259.1,126,258.8,125.7,259.1,125.4z"/>
		<path id="XMLID_358_" class="st1" d="M252.8,126C252.8,126,252.8,125.7,252.8,126C253.1,125.7,252.8,126.3,252.8,126L252.8,126z"
			/>
		<path id="XMLID_357_" class="st1" d="M252.8,126.3c0.3,0,0,0.3,0,0.3c0,0.3,0,0.6,0,0.6C252.5,127.2,252.8,126.9,252.8,126.3z"/>
		<path id="XMLID_356_" class="st1" d="M256.4,127.5C256.7,127.5,256.7,127.5,256.4,127.5c0.3,1.2,0.3,2.1,0.3,3c-0.3,0,0-0.3,0-0.6
			c0,0,0,0,0-0.3c0,0,0,0,0-0.3c0,0,0,0,0-0.3c0,0,0,0,0-0.3c0,0,0,0,0-0.3c0,0,0,0,0-0.3c0,0,0,0,0-0.3c0,0,0,0,0-0.3
			c0,0,0,0,0-0.3C256.7,128.1,256.4,127.8,256.4,127.5L256.4,127.5z"/>
		<path id="XMLID_355_" class="st1" d="M255.2,127.5c0.3,0,0,0.3,0.3,0.6C255.2,128.1,255.2,127.8,255.2,127.5z"/>
		<path id="XMLID_354_" class="st1" d="M258.2,127.5c0.3,0,0,0.3,0,0.3C257.9,127.8,258.2,127.8,258.2,127.5z"/>
		<path id="XMLID_353_" class="st1" d="M255.2,128.1C255.5,128.1,255.2,128.4,255.2,128.1c0,0.3,0.3,0.6,0,0.9
			C255.2,128.7,255.2,128.4,255.2,128.1z"/>
		<path id="XMLID_352_" class="st1" d="M252.8,128.4C252.8,128.4,252.8,128.7,252.8,128.4C253.1,128.7,252.8,128.7,252.8,128.4z"/>
		<path id="XMLID_351_" class="st1" d="M255.2,129c0.3,0,0,0.3,0,0.6s0,0.3,0,0.3c-0.3,0,0,0.3,0,0.6c0,0,0,0,0-0.3
			S255.2,129.6,255.2,129z"/>
		<path id="XMLID_350_" class="st1" d="M253.4,129.6C253.4,129.6,253.7,129.6,253.4,129.6C253.7,129.6,253.7,129.6,253.4,129.6z"/>
		<path id="XMLID_349_" class="st1" d="M254,131.1c0.3-0.3,0.9-0.3,1.8-0.3c0.6,0,1.2,0,1.8,0c0,0,0,0-0.3,0
			C256.1,131.1,255.2,131.1,254,131.1z"/>
		<path id="XMLID_348_" class="st1" d="M258.5,131.1c0,0,0.6-0.3,0.6,0C259.1,131.1,258.8,131.1,258.5,131.1z"/>
		<path id="XMLID_347_" class="st1" d="M259.4,131.1L259.4,131.1L259.4,131.1z"/>
		<path id="XMLID_346_" class="st1" d="M251.3,131.4C251.6,131.1,251.6,131.4,251.3,131.4c0,0.3,0,0.3,0,0.3s0,0,0,0.3
			c0,0.3,0,0.6-0.3,0.6c0,0.3,0,0.6-0.3,0.6C251.3,132.6,251.3,132,251.3,131.4z"/>
		<path id="XMLID_345_" class="st1" d="M249.5,131.4L249.5,131.4C249.5,131.4,248.9,131.4,249.5,131.4z"/>
		<path id="XMLID_344_" class="st1" d="M254.6,131.7L254.6,131.7C254.9,131.7,254.6,131.7,254.6,131.7z"/>
		<path id="XMLID_343_" class="st1" d="M255.5,131.4c0,0-1.2,0-0.3,0H255.5z"/>
		<path id="XMLID_342_" class="st1" d="M255.5,131.7C255.5,131.7,255.8,131.7,255.5,131.7C255.8,131.7,255.8,131.7,255.5,131.7z"/>
		<path id="XMLID_341_" class="st1" d="M257.3,131.4L257.3,131.4C257.6,131.4,257,131.4,257.3,131.4z"/>
		<path id="XMLID_340_" class="st1" d="M257.6,131.7c0-0.3,0.3,0,0.6,0C258.2,132,257.6,131.7,257.6,131.7z"/>
		<path id="XMLID_339_" class="st1" d="M254.3,132C254.3,131.7,254.3,131.7,254.3,132C254.3,132,254.3,131.7,254.3,132z"/>
		<path id="XMLID_338_" class="st1" d="M254.3,131.4C254.3,131.4,254.6,131.4,254.3,131.4C254.6,131.4,254,131.4,254.3,131.4z"/>
		<path id="XMLID_337_" class="st1" d="M257,132.3C257,132,257,132,257,132.3L257,132.3z"/>
		<path id="XMLID_336_" class="st1" d="M257.6,132.3c0-0.3,0.6,0,0.6,0S257.9,132,257.6,132.3z"/>
		<path id="XMLID_335_" class="st1" d="M258.5,132.3C258.5,132,258.5,132,258.5,132.3C258.8,132.3,258.5,132.3,258.5,132.3z"/>
		<path id="XMLID_334_" class="st1" d="M259.1,132.3C259.1,132,259.1,132,259.1,132.3L259.1,132.3z"/>
		<path id="XMLID_333_" class="st1" d="M259.4,132.3C259.4,132,259.7,132,259.4,132.3C259.7,132.3,259.7,132.3,259.4,132.3z"/>
		<path id="XMLID_332_" class="st1" d="M262.7,131.4c0,0-1.5,0-0.3,0H262.7z"/>
		<path id="XMLID_331_" class="st1" d="M249.2,132.3L249.2,132.3L249.2,132.3z"/>
		<path id="XMLID_330_" class="st1" d="M260.3,132.3C260.3,132.3,260.6,132.3,260.3,132.3C260.6,132.3,260.3,132.3,260.3,132.3z"/>
		<path id="XMLID_329_" class="st1" d="M254.9,132.6c0,0,0.6-0.3,0.6,0C255.2,132.6,254.9,132.6,254.9,132.6z"/>
		<path id="XMLID_328_" class="st1" d="M255.8,132.6C255.8,132.3,256.1,132.3,255.8,132.6C256.1,132.6,255.8,132.6,255.8,132.6z"/>
		<path id="XMLID_327_" class="st1" d="M257,131.4C257,131.4,257.3,131.4,257,131.4C257.3,131.4,256.7,131.4,257,131.4z"/>
		<path id="XMLID_326_" class="st1" d="M258.2,132.3c0,0.3-0.3,0-0.6,0C257.3,132.3,258.2,132.3,258.2,132.3z"/>
		<path id="XMLID_325_" class="st1" d="M258.2,132.6C258.2,132.3,258.5,132.3,258.2,132.6C258.5,132.6,258.5,132.6,258.2,132.6z"/>
		<path id="XMLID_324_" class="st1" d="M259.4,132.6C259.4,132.3,259.4,132.3,259.4,132.6L259.4,132.6z"/>
		<path id="XMLID_323_" class="st1" d="M260.6,131.4L260.6,131.4C260.6,131.4,260,131.4,260.6,131.4z"/>
		<path id="XMLID_322_" class="st1" d="M262.1,132.6C262.4,132.3,262.4,132.3,262.1,132.6C262.4,132.6,262.4,132.6,262.1,132.6z"/>
		<path id="XMLID_321_" class="st1" d="M253.7,132.6C253.7,132.6,254,132.6,253.7,132.6C254,132.6,254,132.6,253.7,132.6z"/>
		<path id="XMLID_320_" class="st1" d="M254.3,131.4C254.3,131.4,254.6,131.4,254.3,131.4C254.6,131.4,254,131.4,254.3,131.4z"/>
		<path id="XMLID_319_" class="st1" d="M249.2,132.6c0-0.3,0.3,0,0.6,0C249.5,132.9,249.2,132.6,249.2,132.6z"/>
		<path id="XMLID_318_" class="st1" d="M250.1,132.6L250.1,132.6L250.1,132.6z"/>
		<path id="XMLID_317_" class="st1" d="M260.3,132.6C260.3,132.6,260.6,132.9,260.3,132.6C260.3,132.9,260.3,132.6,260.3,132.6z"/>
		<path id="XMLID_316_" class="st1" d="M260.6,132.6h0.3C260.9,132.9,260.6,132.9,260.6,132.6z"/>
		<path id="XMLID_315_" class="st1" d="M261.5,131.4C261.8,131.4,261.8,131.4,261.5,131.4C261.8,131.4,261.2,131.4,261.5,131.4z"/>
		<path id="XMLID_314_" class="st1" d="M261.8,132.6c0-0.3,0.6,0,0.6,0s0,0,0.3,0c0.3,0,0.3,0,0.6,0h0.3c0,0-0.3,0-0.6,0
			C262.4,132.9,262.1,132.9,261.8,132.6z"/>
		<path id="XMLID_313_" class="st1" d="M260.9,132.9c0,0.3-1.5,0-0.6,0C260.6,132.9,260.9,132.9,260.9,132.9z"/>
		<path id="XMLID_312_" class="st1" d="M260,133.5c0-0.3,0.6,0,0.6,0S260.3,133.2,260,133.5z"/>
		<path id="XMLID_311_" class="st1" d="M260.9,133.5c0,0.3-0.6,0-0.9,0.3c-0.3,0,0.3,0,0.6,0C260.6,133.5,260.9,133.5,260.9,133.5z"
			/>
		<path id="XMLID_310_" class="st1" d="M260.9,133.8c0,0.3-0.3,0-0.6,0.3c0,0-0.6,0-0.3,0C260.3,133.5,260.6,133.8,260.9,133.8z"/>
		<path id="XMLID_309_" class="st1" d="M256.1,134.7c0,0.3,0,0.6,0,0.6c0,0.3,0,0.6-0.3,0.6c0-0.3,0-0.6,0-0.6
			C255.8,135,255.8,134.7,256.1,134.7z"/>
		<path id="XMLID_308_" class="st1" d="M256.4,134.7c0,0.6,0,0.9,0,1.2c-0.3,0-0.3-0.3-0.3-0.6C256.1,135,256.1,134.7,256.4,134.7z"
			/>
		<path id="XMLID_307_" class="st1" d="M255.5,134.7c0.3,0,0,0.6,0,0.9s0,0.3,0,0.3S255.5,135.3,255.5,134.7z"/>
		<path id="XMLID_306_" class="st1" d="M257.9,135C257.9,135,257.9,135.3,257.9,135C257.9,135.6,257.9,135.3,257.9,135z"/>
		<path id="XMLID_305_" class="st1" d="M255.2,135c0.3,0.3,0,0.6,0,0.9C254.9,136.2,254.9,135.3,255.2,135z"/>
		<path id="XMLID_304_" class="st1" d="M254.9,135.3L254.9,135.3c0,0.6,0,0.9,0,1.2c0,0,0,0,0-0.3
			C254.9,136.2,254.9,135.6,254.9,135.3z"/>
		<path id="XMLID_303_" class="st1" d="M255.2,136.8C255.2,136.5,255.5,136.8,255.2,136.8C255.5,136.8,255.2,136.8,255.2,136.8z"/>
		<path id="XMLID_302_" class="st1" d="M255.2,137.4C255.2,137.1,255.5,137.1,255.2,137.4C255.5,137.4,255.2,137.4,255.2,137.4z"/>
		<path id="XMLID_301_" class="st1" d="M255.2,137.4C255.2,137.4,255.2,137.7,255.2,137.4C255.2,137.7,255.2,137.7,255.2,137.4z"/>
		<path id="XMLID_300_" class="st1" d="M254.9,138.9c0-0.3,0,0.3,0,0.3C254.9,139.5,254.9,139.2,254.9,138.9z"/>
		<path id="XMLID_299_" class="st1" d="M255.2,139.8C255.2,139.5,255.2,139.8,255.2,139.8C255.2,140.1,255.2,139.8,255.2,139.8z"/>
		<path id="XMLID_298_" class="st1" d="M254.9,140.1c0,0.3,0,0.6,0,0.9s0,0.6,0,0.6c0,0.3,0,0.6,0,0.9c0,0,0,0,0,0.3v-0.3
			c0-0.3,0-0.3,0-0.6C254.9,141.3,254.9,140.7,254.9,140.1z"/>
		<path id="XMLID_297_" class="st1" d="M255.2,140.1L255.2,140.1c0,0.6,0,0.9,0,1.2c0,0,0,0,0-0.3S255.2,140.4,255.2,140.1z"/>
		<path id="XMLID_296_" class="st1" d="M255.2,141.6C255.2,141.3,255.2,141.6,255.2,141.6C255.2,141.9,255.2,141.6,255.2,141.6z"/>
		<path id="XMLID_295_" class="st1" d="M256.4,141.6c0-0.3,0,0.3,0,0.3C256.4,142.2,256.4,141.9,256.4,141.6z"/>
		<path id="XMLID_294_" class="st1" d="M260,142.5L260,142.5L260,142.5z"/>
		<path id="XMLID_293_" class="st1" d="M255.2,142.8L255.2,142.8L255.2,142.8z"/>
		<path id="XMLID_292_" class="st1" d="M254.9,142.8C255.2,143.1,255.2,143.1,254.9,142.8c0.3,0,0.3,0.3,0.3,0.3c0,0.3,0,0.3,0,0.3
			c0,0.3,0,0.9,0,1.2v0.3l0,0c0-0.3,0-0.3,0-0.6c0-0.3,0-0.6,0-1.2C255.2,143.4,254.9,143.4,254.9,142.8z"/>
		<path id="XMLID_291_" class="st1" d="M254.9,143.1L254.9,143.1C254.9,143.4,254.9,143.4,254.9,143.1z"/>
		<path id="XMLID_290_" class="st1" d="M256.4,143.4C256.4,143.4,256.7,143.4,256.4,143.4C256.7,143.7,256.4,143.7,256.4,143.4z"/>
		<path id="XMLID_289_" class="st1" d="M254.9,144.3c0.3,0,0,0,0,0.3C254.6,144.6,254.9,144.3,254.9,144.3z"/>
		<path id="XMLID_288_" class="st1" d="M254.9,144.9L254.9,144.9C254.9,145.2,254.9,144.9,254.9,144.9z"/>
		<path id="XMLID_287_" class="st1" d="M256.4,145.5C256.4,145.5,256.7,145.5,256.4,145.5C256.7,145.5,256.4,145.5,256.4,145.5z"/>
		<path id="XMLID_286_" class="st1" d="M256.4,145.8C256.7,145.5,256.7,145.8,256.4,145.8C256.4,146.4,256.4,145.8,256.4,145.8z"/>
		<path id="XMLID_285_" class="st1" d="M252.8,145.8c0,0,0,0.6,0,0.3C252.8,146.1,252.8,146.1,252.8,145.8z"/>
		<path id="XMLID_284_" class="st1" d="M255.2,146.4C255.2,146.1,255.2,146.7,255.2,146.4C255.2,147,255.2,146.4,255.2,146.4z"/>
		<path id="XMLID_283_" class="st1" d="M256.4,146.4C256.4,146.4,256.7,146.4,256.4,146.4C256.7,146.4,256.4,146.4,256.4,146.4z"/>
		<path id="XMLID_282_" class="st1" d="M254.9,146.7L254.9,146.7C254.9,147,254.9,147,254.9,146.7z"/>
		<path id="XMLID_281_" class="st1" d="M256.4,146.7C256.4,146.7,256.7,146.7,256.4,146.7C256.7,147,256.4,147,256.4,146.7z"/>
		<path id="XMLID_280_" class="st1" d="M255.2,147C255.2,146.7,255.2,147,255.2,147C255.2,147.3,255.2,147,255.2,147z"/>
		<path id="XMLID_279_" class="st1" d="M255.2,147.3L255.2,147.3C255.2,147.6,255.2,147.6,255.2,147.3z"/>
		<path id="XMLID_278_" class="st1" d="M243.7,147.6L243.7,147.6C243.7,147.9,243.7,147.9,243.7,147.6z"/>
		<path id="XMLID_277_" class="st1" d="M255.2,147.9C255.2,147.6,255.2,147.6,255.2,147.9L255.2,147.9z"/>
		<path id="XMLID_276_" class="st1" d="M243.7,147.9L243.7,147.9C243.7,148.2,243.7,148.2,243.7,147.9z"/>
		<path id="XMLID_275_" class="st1" d="M254.6,148.5C254.6,148.2,254.9,148.5,254.6,148.5C254.6,148.8,254.6,148.5,254.6,148.5z"/>
		<path id="XMLID_274_" class="st1" d="M254.6,149.1C254.6,148.8,254.9,149.1,254.6,149.1L254.6,149.1z"/>
		<path id="XMLID_273_" class="st1" d="M256.4,149.1C256.7,149.1,256.7,149.1,256.4,149.1C256.7,149.1,256.7,149.1,256.4,149.1
			C256.7,149.1,256.7,149.1,256.4,149.1L256.4,149.1z"/>
		<path id="XMLID_272_" class="st1" d="M256.4,149.4C256.4,149.1,256.7,149.1,256.4,149.4C256.7,149.4,256.7,149.4,256.4,149.4z"/>
		<path id="XMLID_271_" class="st1" d="M254.9,149.4C254.9,149.4,255.2,149.4,254.9,149.4C255.2,149.4,254.9,149.4,254.9,149.4z"/>
		<path id="XMLID_270_" class="st1" d="M254.9,149.7c0-0.3,0,0.6,0,0.6C254.9,150.6,254.9,150,254.9,149.7z"/>
		<path id="XMLID_269_" class="st1" d="M254.6,149.7C254.9,149.7,254.9,150,254.6,149.7C254.6,150.3,254.6,150,254.6,149.7z"/>
		<path id="XMLID_268_" class="st1" d="M244.6,150.6L244.6,150.6C244.6,150.9,244.6,150.9,244.6,150.6z"/>
		<path id="XMLID_267_" class="st1" d="M256.1,152.1c0.3,0,0.3,0.9,0,0.9c-0.3,0,0-0.3,0-0.6C256.1,152.4,256.1,152.1,256.1,152.1z"
			/>
		<path id="XMLID_266_" class="st1" d="M254.9,152.4L254.9,152.4L254.9,152.4z"/>
		<path id="XMLID_265_" class="st1" d="M255.8,152.4c0.3,0.3,0.3,0.9-0.3,0.9C255.8,153,255.5,152.4,255.8,152.4z"/>
		<path id="XMLID_264_" class="st1" d="M254.6,152.4c0.3,0,0,0.6,0,0.6C254.3,153,254.6,152.7,254.6,152.4z"/>
		<path id="XMLID_263_" class="st1" d="M261.8,155.4L261.8,155.4L261.8,155.4z"/>
		<path id="XMLID_262_" class="st1" d="M261.8,155.8L261.8,155.8C262.1,155.8,261.8,155.8,261.8,155.8z"/>
		<path id="XMLID_261_" class="st1" d="M249.8,156.4c0.3,0.3,0.6,0.3,0.9,0.6c-0.3,0.3-0.3,0-0.6-0.3
			C250.1,156.7,249.8,156.7,249.8,156.4z"/>
		<path id="XMLID_260_" class="st1" d="M255.2,156.7L255.2,156.7L255.2,156.7z"/>
		<path id="XMLID_259_" class="st1" d="M259.7,156.7C259.7,156.4,260,156.7,259.7,156.7c0.3,0,0.3,0,0.6,0
			C260.3,156.7,260,156.7,259.7,156.7z"/>
		<path id="XMLID_258_" class="st1" d="M259.1,157.3C259.1,157.3,259.4,157.3,259.1,157.3C259.4,157.3,259.4,157.3,259.1,157.3z"/>
		<path id="XMLID_257_" class="st1" d="M255.5,157.3c0.3,0.3-0.3,0.3-0.3,0.6C254.9,157.6,255.5,157.6,255.5,157.3z"/>
		<path id="XMLID_256_" class="st1" d="M256.4,160.9c-0.3,0,0-0.3,0-0.3l0.3-0.3c0,0,0.3,0,0.3-0.3c0.3,0,0.3-0.3,0.6-0.3l0.3-0.3
			c0,0,0,0,0.3,0c0,0,0,0,0.3-0.3c0.3-0.3,0.6-0.3,0.9-0.6c0.3,0,0.3-0.3,0.6-0.3c0.3,0,0.3,0,0.6-0.3l0,0c0.3,0,0.9-0.6,1.2-0.6
			c-0.6,0.3-0.9,0.6-1.5,0.9c-0.3,0.3-0.9,0.6-1.5,0.9c-0.3,0.3-0.6,0.6-0.9,0.6c-0.3,0-0.3,0.3-0.6,0.6
			C256.7,160.6,256.7,160.9,256.4,160.9z"/>
		<path id="XMLID_255_" class="st1" d="M258.8,157.9c0-0.3,0.6,0,0.6,0S259.1,157.9,258.8,157.9z"/>
		<path id="XMLID_254_" class="st1" d="M253.7,158.5C253.7,158.8,253.4,158.2,253.7,158.5L253.7,158.5z"/>
		<path id="XMLID_47_" class="st1" d="M258.8,129.6c-0.3,0,0.3-0.3,0.3-0.3c-0.3,0-0.3,0.3-0.6,0.6c-0.3,0.3-0.6,0.3-0.6,0.3
			c0,0.6,0.3,0.9,0.9,0.9c0.3,0,0,0.3-0.3,0.3s-0.3,0-0.6,0c-0.3,0-0.6-0.3-1.2-0.3c0-0.3,0.3-0.3,0.3-0.3c-0.3-0.9,0-2.4-0.3-3.3
			c0,0,0,0.3,0,0.6c0,0.6,0,1.2,0,1.8c0,0.3,0,0.6-0.3,0.6c0-1.2,0-2.1,0-3c0.3-0.3,0.9-0.3,0.9-0.3s1.2,0,1.2,0.3
			c0,0.3,0,0.6,0,0.9c0,0-1.2-0.3-1.2-0.6c0-0.3-0.6-0.3-0.6-0.6c-0.6,0-1.2,0.3-1.8,0.3c0,1.2-0.3,1.5,0,2.7l0,0
			c0.3,0.3,0,0.6-0.3,0.6c0,0.3,0.3,0.3,0.6,0.3c0.3,0,0.6,0,0.9,0c0.3-3,1.2-1.5,1.2-2.4c0,0,1.2-0.6,1.2-0.3v0.3
			C258.8,129,258.8,129.3,258.8,129.6c0,0,0,0.6,0,0.9c0,0.3-0.9,0-0.9,0.3c-1.2,0-2.7,0-3.9,0.3l0,0c0,0.3-0.3,0-0.6,0.3
			c0,0,0,0.3-0.3,0.6c0,0.3,0.3,0,0.6,0.3s-0.6,0-0.6,0.3c0,0.3,0,0.6,0.3,0.6c0,0,0,0-0.3,0.3c0.3,0.3,0.6,0,0.9,0h0.3v-0.6
			c0-0.3,1.2-0.6,1.8-0.6c1.2,0,2.1,0,3.3,0c0.3,0,0.3-0.3-0.3-0.3c0,0,0,0.3,0.3,0.3c0-0.3-0.3-0.3-0.3-0.6c-0.3,0-0.6,0-0.6,0h0.3
			c0.3-0.3,0.9-0.3,1.8,0l0.3,0.3c0.9,0.3,1.8,0.3,2.7,0.6c0.3,0.9,0.3,2.1,0,3c-0.6,0.3-1.2,0.3-2.1,0.3c-0.3,0-0.3,0-0.6,0
			c-0.3,0-0.3,0.3-0.6,0.3c-0.3,0-0.6,0-0.6,0c-0.3,0-0.3,0-0.6-0.3c0,0-0.3,0-0.6,0c-0.3,0-0.3,0-0.6,0c0,0.3,0,0.9,0,0.9v0.3
			c0,0,0,0,0,0.3c0,0.6,0,1.8,0,2.7c0,0.3,0,0.6,0,0.6c0,0.3,0.6,0.3,0.6,0.9c0.3,0,0.3,0,0.6,0c0,0.3,0.3,0.3,0.3,0.6
			c0.3,0,0.3,0,0.6,0.3c0,0.3,0.3,0.3,0.3,0.6c0.3,0,0.3,0,0.3,0.3l0.3,0.3c0,0.3-0.6,0.3-0.9,0.3c0,0.3,0.3,0.6,0.9,0.6
			c0,0,0,0-0.3,0c0,0,0.3,0,0.3-0.3c-0.3,0-0.3,0-0.3-0.3c0.3,0,0.3,0.3,0.6,0.3c0,0.6,0.3,0.9,0.3,1.5c0,0.3,0,0.6,0,0.9
			c0,0.3-0.3,0.6-0.3,0.9c-0.3,0.3-0.3,0.6-0.6,0.9c-0.3,0-0.3,0.3-0.6,0.6c-0.3,0-0.3,0.3-0.6,0.3c-0.3,0.3-0.3,0.6-0.9,0.9
			c0,0.3-0.3,0.3-0.6,0.6c0,0,0,0,0,0.3c0,0.6,0,1.2,0.3,2.1c0,0.3,0,0.6,0.3,0.9c0,0.3,0,0.3,0,0.6c0.3,0.6,0.6,0.9,0.9,1.2
			c0.3,0,0.6,0.3,0.9,0.3c0.6,0,1.5-0.3,2.1-0.3c-0.6,0.3-1.5,0.6-2.1,0.3c-1.8-0.3-2.1-2.1-2.1-3.9c-0.3,0.3,0,0.6,0,0.6
			c0,0.3,0,0.6,0.3,0.9c0,0,0,0,0,0.3c0,0,0,0,0,0.3c0.3,0.6,0.6,1.2,1.2,1.8c0,0,0.3,0,0.3,0.3c0,0,0.3,0,0.3,0.3
			c-1.5-0.3-1.8-1.8-2.1-3.6c0,0,0,0.3,0,0.9c0,0.3,0,0.3,0.3,0.6c0,0.3,0,0.6,0.3,0.6c0,0,0,0,0,0.3c0,0,0,0.3,0.3,0.3
			c0,0,0,0,0.3,0c0,0,0,0,0,0.3c0.3,0.3,0.6,0.6,0.9,0.9c0.6,0.3,1.2,0.3,2.1,0c-0.6,0.3-1.5,0.3-2.1,0c-0.3,0-0.9-0.3-0.9-0.6v-0.3
			l-0.3-0.3c0,0,0-0.3-0.3-0.6c0-0.3-0.3-0.3-0.3-0.6c0-0.3-0.3-1.2-0.3-1.8c-0.3,0.3,0,0.6,0,0.9s0,0.9,0.3,1.2v0.3l0.3,0.3
			c0,0.3,0,0.3,0.3,0.6c0.3,0.6,1.2,0.9,1.8,0.9c-0.3,0-0.6,0-0.6,0c-0.3,0-0.3-0.3-0.6-0.3c-0.3,0-0.6-0.3-0.9-0.6v-0.3
			c0,0,0,0-0.3,0c0,0,0,0,0-0.3l-0.3-0.3c0,0,0-0.3-0.3-0.3c0,0,0,0,0-0.3c0,0-0.3-0.6-0.3-0.9c0-0.3-0.3-0.9-0.3-1.5
			c0,0.3,0,0.6,0,0.6v0.3l0,0c0,0.3,0,0.3,0,0.6c0,0,0,0,0,0.3c0,1.2,0.9,1.8,1.5,2.4c0.3,0,0.6,0.3,0.9,0.3c0,0.3-0.3,0-0.3,0l0,0
			c0,0-0.3,0-0.6-0.3c0,0,0,0,0-0.3c0,0-0.3,0-0.3-0.3l-0.3-0.3c0-0.3-0.3-0.6-0.6-0.9v-0.3c0,0,0,0-0.3,0c0,0,0-0.6-0.3-0.6
			c-0.3-0.3-0.3-1.2-0.3-1.8c0,0,0,0.3,0,0.6c0,0.3,0,0.6,0,0.9c0,0,0,0.3,0.3,0.3c0,0.3,0,0.6,0.3,0.9l0,0c0,0.3,0.3,0.6,0.6,0.9
			c0.3,0.3,0.6,0.6,0.6,0.9c0.3,0,0.3,0.3,0.6,0.3c0,0.3-0.3,0-0.6,0c-0.3,0-0.9-0.6-0.9-0.9l-0.3-0.3v-0.3
			c-0.3-0.3-0.6-1.2-0.6-1.8c-0.3,0.3,0,0.6,0,0.9c0,0,0,0.3,0.3,0.6c0,0,0.3,0,0.3,0.3s0,0.3,0,0.3l0,0c0,0.3,0.3,0.6,0.6,0.6v0.3
			l0.3,0.3c-0.3,0-0.3-0.3-0.6-0.3l-0.3-0.3l-0.3-0.3v-0.3c0,0,0,0-0.3,0c0-0.3,0-0.6-0.3-0.9c-0.3,0,0,0.3,0,0.6v0.3l0.3,0.3
			c0,0,0,0.3,0.3,0.3c0,0.3,0.3,0.3,0.6,0.6c0,0.3-0.3-0.3-0.6-0.3v-0.3c0,0-0.3-0.3-0.3-0.6c0,0,0,0,0,0.3c0,0.3,0,0.3,0.3,0.3v0.3
			l0.3,0.3c0.3,0.3,0.3,0.6,0.6,0.6c0.3,0,0.6,0.3,0.9,0.3c-0.3,0.3-0.6,0-0.9-0.3c0,0,0,0-0.3-0.3c-0.3-0.3-0.6-0.3-0.9-0.6
			c0-0.3-0.3-0.3-0.3-0.6c-0.3,0,0,0.3,0,0.3c0,0.3,0.3,0.6,0.6,0.9c0.6,0.3,0.9,0.9,1.8,0.9c-0.3,0.3-0.6,0-0.9,0h-0.3l-0.3-0.3
			c0,0-0.3,0-0.3-0.3c-0.3-0.3-0.3-0.6-0.6-0.6c0,0.6,0.6,0.9,0.9,0.9c0.3,0.3,0.6,0.6,1.2,0.6c0,0,0,0-0.3,0c0,0,0,0-0.3,0
			c-0.3,0-0.9-0.3-1.2-0.6l-0.3-0.3c-0.3,0,0,0.3,0,0.3c0.3,0,0.3,0.3,0.3,0.3h0.3c0.3,0,0.3,0.3,0.6,0.6c0,0.3-0.3,0-0.6,0
			c-0.3-0.3-0.6-0.6-0.9-0.6c0,0.3,0.3,0.3,0.6,0.6c0.3,0,0.3,0.3,0.6,0.3c-0.3,0.3-0.9-0.3-0.9-0.3c-0.3,0,0.3,0.3,0.3,0.3
			c0.3,0,0.3,0.3,0.6,0.3c-0.3,0.3-0.6,0-0.9-0.3c0,0.3,0.3,0.3,0.6,0.6c0.3,0,0.3-0.3,0.6-0.3h0.3c0,0,0,0,0-0.3c0,0,0,0,0.3,0
			c0.3,0,0.3-0.3,0.6-0.3c0,0,0-0.3,0.3-0.3c0,0,0.3,0,0.3-0.3c0.3,0,0.6-0.3,0.9-0.3c0,0,0,0,0.3-0.3c0,0,0.3-0.3,0.6-0.3
			c-0.6,0.6-1.5,0.9-2.1,1.2l-0.3,0.3h-0.3l-0.3,0.3c-0.3,0.3-0.6,0.3-0.9,0.6c0,0.3,0.3,0,0.3,0c0.3-0.3,0.6-0.6,0.9-0.6
			c0.3-0.3,0.6-0.3,1.2-0.6c0.3-0.3,0.6-0.3,1.2-0.6c0.3-0.3,0.9-0.3,1.2-0.6c-0.3,0.3-0.6,0.3-0.9,0.3c-0.3,0-0.6,0.3-0.6,0.3
			s0,0-0.3,0.3H260c0,0,0,0,0,0.3c-0.3,0-0.3,0.3-0.6,0.3c-0.3,0.3-0.9,0.6-1.2,0.6c-0.3,0.3-0.6,0.6-0.9,0.6
			c-0.3,0-0.6-0.6-0.9-0.6c-0.3-0.3-0.6-0.3-1.2-0.6c0.3,0,0.6,0.3,0.9,0.3c0,0,0.3,0,0.3,0.3c0.3,0.3,0.6,0.3,0.9,0.6
			c0.3-0.6,0-1.2,0-2.1l0,0c0,0,0,0,0-0.3l0,0c0,0,0,0,0-0.3l0,0l0,0c0,0,0,0,0-0.3c0-1.8,0-3.6,0-5.7c0.3,0.3,0,0.6,0.3,0.6
			c0.3-0.3,0-0.6,0-0.6c0.3,0,0,0.3,0.3,0.3c0.3,0-0.3-0.6,0-0.6c0.3-0.3,0.3,0,0.3,0.3c0.3,0,0-0.3,0-0.3s0.3,0,0.3-0.3
			c0.3,0,0,0.3,0,0.6c0.3,0,0-0.3,0-0.6c-0.3,0.3-0.6,0.3-0.9,0.6c-0.3,0-0.3,0.3-0.6,0.3c-0.3,0.3-0.3,0.3-0.6,0.3
			c0,0-0.3,0-0.3,0.3c0,0,0,0.3-0.3,0.3c-0.3,0.3-0.6,0.6-1.2,0.9c-0.3,0-0.3,0.3-0.3,0.6c-0.3,0.3-0.6,0.6-0.9,0.6
			c0,0.3-0.3,0.3-0.6,0.6c-0.3,0.3-0.3,0.3-0.3,0.6c-0.6,0-1.2-0.3-1.5-0.3c0,0,0,0-0.3,0c0,0-0.6-0.3-0.9-0.3l-0.3-0.3
			c0,0-0.3,0-0.3-0.3c0,0,0-0.3-0.3-0.3l-0.3-0.3c0,0-0.6-0.3-0.6-0.6c-0.3-0.3-0.6-0.9-0.9-1.2c-0.3-0.6-0.9-1.5-1.2-2.1
			c-0.3-0.3-0.3-0.9-0.3-1.2c-0.3-0.9-0.3-1.8-0.3-2.7c-0.3,0.3,0,0.6-0.3,0.9c0,0.3,0,0.9,0,1.2c0,0.3,0,0.3,0.3,0.3
			c-0.3,0.3,0,0.9,0,1.2c0.3-0.3,0-0.6,0-1.2c0.3,0,0,0.6,0.3,0.3c0-0.3,0,0,0,0l-0.3,0.3l0,0v0.3c0,0.3,0.3,0.6,0.6,0.9
			c0,0.3,0.3,0.3,0.3,0.6l0.3,0.3c0,0.3,0.3,0.3,0.3,0.6c0.3-0.3-0.3-0.3,0-0.6c0.3,0.3,0.6,0.9,0.6,1.2v0.3c0,0,0,0,0.3,0v0.3
			c0,0,0,0,0.3,0.3c0,0.3,0.3,0.3,0.3,0.6v0.3c0,0,0.3,0,0.3,0.3v0.3c0.3,0.3,0.6,0.6,0.9,0.9c0,0.3,0.3,0.3,0.3,0.6c0,0,0,0,0.3,0
			c0,0,0,0,0,0.3h0.3c0,0,0,0,0,0.3h0.3c0,0,0,0,0.3,0.3l0.3,0.3c0.3,0,0.6,0.3,0.6,0.3s0.3,0,0.3,0.3c0,0,0.3,0.3,0.6,0.3h0.3
			l0.3,0.3h0.3c0,0,0,0,0.3,0.3c0.3,0,0.3,0.3,0.6,0.3c0.3,0.3,0.9,0.3,1.5,0.6c0.3,0.3,0.6,0.3,0.9,0.6c0,0,0,0,0.3,0l0,0h0.3
			c0,0,0,0,0,0.3c0.3,0.3,0.9,0.6,1.2,0.9c0.3-0.3,0.3-0.6,0.6-0.6c0.3-0.3,0.6-0.6,0.9-0.6h0.3l0.3-0.3h0.3c0,0,0.3-0.3,0.6-0.3
			c0.3-0.3,0.6-0.3,0.9-0.3c0,0,0,0,0-0.3h0.3c0.3-0.3,0.9-0.6,1.2-0.6c0.6-0.3,1.2-0.6,1.5-1.2c0.3,0,0.6-0.6,0.9-0.3
			c0,0,0-0.3,0.3-0.3c0.3-0.3,0.6-0.6,0.9-0.9l0.3-0.3l0.3-0.3c0,0,0,0,0.3-0.3c0.6-0.6,0.9-1.5,1.2-2.1l0,0
			c-0.3,0.9-0.6,1.5-1.2,2.1c-0.3,0.3-0.3,0.3-0.6,0.6c-0.3,0.3-0.3,0.6-0.6,0.6c0,0.3,0,0-0.3,0.3c0,0,0,0,0,0.3c0,0-0.3,0-0.3,0.3
			c-0.3,0-0.3,0-0.3,0s0,0.3-0.3,0.3c-0.3,0.3-0.9,0.6-1.2,0.9c0,0-0.3,0-0.3,0.3c0,0,0,0.3-0.3,0.3c0,0,0,0-0.3,0c0,0,0,0-0.3,0.3
			c0,0-0.3,0-0.3,0.3l-0.3,0.3H263c0,0,0,0,0,0.3c0,0-0.3,0-0.6,0.3c0,0,0,0-0.3,0.3l0,0c-0.3,0.3-0.9,0.6-1.5,0.9
			c-0.3,0.3-0.6,0.6-0.9,0.6s-0.3,0.3-0.6,0.3c0,0,0,0,0,0.3c0,0,0,0-0.3,0c0,0,0,0,0,0.3c0,0-0.6,0.3-0.6,0.6
			c0,0.3-0.3,0.3-0.3,0.6c0.3,0,0.3-0.3,0.3-0.3c0.3-0.3,0.6-0.6,0.9-0.9c0.6-0.3,1.5-0.9,2.1-1.5c0.3,0,0.6-0.3,0.9-0.3
			c0,0,0,0,0-0.3c0.3,0,0.3,0,0.6-0.3c0,0,0.3,0,0.3-0.3c0,0,0.3-0.3,0.6-0.3c0.3-0.3,0.6-0.3,0.6-0.6h0.3c0,0,0.3-0.3,0.6-0.6
			c0.3,0,0.6-0.3,0.9-0.6c0,0,0.3-0.6,0.6-0.6l0.3-0.3c0,0,0,0,0-0.3c0,0,0,0,0.3,0c0,0,0-0.3,0.3-0.3c0.3-0.3,0.3-0.6,0.6-0.9
			c0,0,0,0,0.3-0.3c0,0,0-0.3,0.3-0.3c0.3-0.6,0.6-1.2,0.9-1.8c0-0.3,0-0.6,0.3-0.6v-0.3l0.3-0.3c0-0.3,0-0.6,0-0.9
			c0-0.3,0.3-0.9,0.3-1.5c0.3,0,0,0.3,0,0.3c0,0.6,0,1.2-0.3,1.8c0,0.3,0,0.3-0.3,0.6c0.3,0.3-0.3,0.6-0.3,1.2
			c0.3-0.3,0.3-0.9,0.6-1.8c0-0.3,0-0.3,0.3-0.6c0-0.3,0-0.3,0-0.6v-0.3c0-0.3,0-0.9,0-1.5c0-0.3,0-0.9-0.3-1.2
			c-0.3,0.3,0,0.3,0,0.6c0,0.6-0.3,1.2-0.3,1.8c0,0.3,0,0.3,0,0.6c0,0.3-0.3,0.6-0.3,0.9s0,0.3-0.3,0.6c0,0-0.3,0.3-0.3,0.6
			c0,0,0,0-0.3,0.3c0,0-0.3,0.3-0.3,0.6c-0.6,0.6-1.2,1.2-1.8,1.8c-0.3,0.3-0.6,0.3-0.6,0.6c-0.3,0.3-0.9,0.6-1.5,0.9
			c0-0.3,0.3-0.3,0.6-0.3c0.3-0.3,0.6-0.3,0.9-0.6c0.9-0.6,1.8-1.5,2.4-2.4c-0.3-0.3-0.3,0-0.6,0c-0.6,0-0.9-0.3-1.2-0.3
			c0.3-0.3,0.3-0.3,0.6-0.6h0.3c0,0,0,0,0-0.3c0,0,0.3,0,0.3-0.3c0.3-0.3,0.6-0.9,0.9-1.2c0-0.3,0.3-0.6,0.3-0.6
			c0-0.3,0.3-0.6,0.3-0.6s0.3,0,0.3-0.3c0-0.3,0.3-0.9,0.6-1.2c0-0.3,0-0.6,0.3-0.9c0.3,0,0.3,0.3,0.3,0.6c0,0,0,0.3,0.3,0.6
			c0,0.3,0.3,0.6,0.3,1.2c0.3,0.6,0.3,1.5,0.3,2.7s-0.3,2.7-0.9,3.6c-0.3,0-0.3,0-0.3-0.3v-0.3c0,0,0,0-0.3,0c0,0,0-0.3-0.3-0.3
			l-0.3-0.3c-0.3,0.3-0.3,0.6-0.3,0.9c-0.3,0.3-0.6,0.9-0.9,1.2c-0.3,0.3-0.6,0.6-0.9,1.2c0,0.3-0.3,0-0.3,0.3c0,0,0,0.3-0.3,0.3
			h-0.3c0,0,0,0,0,0.3l-0.3,0.3H266c0,0,0,0.3-0.3,0.3c0,0-0.3,0.3-0.6,0.6c-0.6,0.3-1.2,0.6-1.8,0.9c-0.3,0.3-0.6,0.3-0.9,0.6
			c0,0,0,0-0.3,0.3h-0.3c-0.3,0-0.3,0.3-0.3,0.3c-0.3,0-0.3,0-0.6,0.3c0,0-0.3,0-0.3,0.3h-0.3c0,0,0,0,0,0.3c0,0-0.3,0-0.3,0.3
			c0,0,0,0,0,0.3c0,0-0.3,0-0.3,0.3c-0.3,0.3-0.6,0.6-0.6,0.6l-0.3,0.3l-0.3,0.3c0,0,0,0.3-0.3,0.3c-0.6-0.6-0.9-0.9-1.2-1.5
			c-0.6-0.6-0.9-0.9-1.5-1.2c-0.6-0.3-1.2-0.6-1.8-0.9c-0.3-0.3-0.6-0.3-0.9-0.6l0,0c0,0-0.3-0.3-0.6-0.3c-0.3,0.3-0.3,0.3-0.3,0.6
			c-0.3,0.3,0,0.6,0,1.2c0,0.3,0.3,0.3,0.6,0.6c0,0.3,0,0.3,0.3,0.6c-0.3-0.3-0.6-0.3-0.9-0.9c-0.3,0-0.3,0.3-0.3,0.6c0,0,0,0,0,0.3
			l0,0l0,0c0,0,0,0,0,0.3c-0.3,0-0.3-0.6-0.6-0.9c0.3-0.6,0-0.9,0-1.5c0,0,0.3,0,0.3-0.3c0.3,0,0.6-0.3,0.9-0.6c0-0.3-0.6,0-0.6,0.3
			c-0.3,0,0,0.3-0.3,0.3c0-0.3,0.3-0.6,0.3-0.9c0-0.3-0.6-0.3-0.6-0.6c-0.3,0-0.3-0.3-0.3-0.3c-1.2-0.9-2.1-2.1-3-3.6
			c-0.3-0.3-0.3-0.6-0.3-0.6c-0.6,0.3-0.3,1.2-0.9,1.5c-0.3,0-0.3-0.3-0.3-0.3l-0.3-0.3c0,0-0.3-0.3-0.3-0.6c0,0,0,0,0-0.3
			c0,0,0,0-0.3-0.3c0,0,0-0.3,0-0.6l0,0c-0.3-0.9,0-2.4,0-3.3l0,0c0-0.3,0-0.3,0-0.6l0,0v-0.3c0-0.6,0.6-1.2,0.6-1.8
			c0,0,0.3,0.3,0.3,0.6c0,0.3,0,0.6,0.3,0.6c-0.3,0.3,0.3,0.6,0.3,1.2c0,0.3,0.3,0.3,0.3,0.6c0,0.3,0.3,0.3,0.3,0.6
			c0.3,0.6,0.9,0.9,1.2,1.5c0.3,0,0.3,0.3,0.6,0.3c0.3,0,0.3,0.3,0.6,0.3c0,0.3-0.3,0.3-0.6,0.3c-0.3,0.3-0.9,0.3-1.5,0
			c0.3,0.6,0.6,0.9,1.2,1.5c0,0,0,0,0,0.3c0.6,0.6,1.8,1.5,3.3,1.8c0.3,0,0.3-0.3,0.6-0.6c0.3,0,0.3-0.3,0.3-0.3
			c0-0.3,0.3-0.3,0.3-0.6c0.3,0,0.3-0.3,0.6-0.3c0-0.3,0.3-0.3,0.6-0.6c0.3,0,0.6-0.6,0.9-0.6c0-0.3,0.3-0.3,0.3-0.3
			c0-0.3,0.3-0.3,0.3-0.3c0.3,0,0.3,0,0.3,0c0-0.3,0.6-0.3,0.6-0.3c0.3-0.3,0.9-0.6,1.2-0.9c0-0.3,0-0.6,0-0.9c0-0.9,0-2.1,0-3
			c0-0.3,0-0.9,0-1.2v-0.3v-0.3c0-0.3,0-0.3,0-0.6c0-0.3,0-0.6,0-0.9c0.3,0.3,0,0.3,0,0.6c0,1.5,0,3.3,0,4.8h1.2
			c0.3,0,0.9,0.3,0.9,0.3c0,0.3,0,0.6,0,0.9l-0.9,0.3c0,0.3-0.9,0-0.9,0.3c0,0.3-0.3,0.3-0.3,0.6c0.3,0,0-0.3,0-0.3s0,0,0.3,0
			c0,0,0,0,0-0.3c0,0-0.3-0.3-0.3,0c-0.3,0,0-0.3-0.3-0.3c0.3-0.3,0.3-0.3,0.6-0.3c0,0,0.3-0.3,0.6-0.3l0.3-0.3
			c0.3,0,0.3-0.3,0.6-0.3c0.3-0.3,0.3-0.3,0.6-0.6c0,0,0.3-0.3,0.3-0.6c0.3,0-0.3,0.3,0,0.3c0,0.3,0.3,0.3,0.3,0.3s-0.3-0.3,0-0.3
			c0.3,0,0-0.3,0-0.3c0-0.3,0.3,0.3,0.3,0c0,0-0.3-0.3,0-0.3c0-0.3-0.3,0-0.3-0.3c0-0.6,0-0.6,0.6-0.9c0-0.3,0-0.6,0.3-0.6
			c0-0.3,0-0.3,0-0.3l0.3-0.3c0-0.3,0-0.3,0-0.3v-0.3c0-0.3,0-0.6-0.3-0.9l0,0l-0.3-0.3c0-0.3,0-0.3,0-0.6c-0.3-0.3-0.6-0.3-0.6-0.6
			c-0.6,0-0.6-0.6-1.2-0.6c-0.3,0.3,0,0.6,0,0.9c0,0.9,0,2.1,0,3c0,0.3,0,0.3,0,0.6l0,0c0,0,0,0.6,0,0.9c0,0.3,0,0.3,0,0.6
			c0,0,0.3,0,0.3,0.3h0.3c0,0.3,0,0.6,0,0.9l-0.3-0.3c0-0.9,0-1.5,0-2.7c0-0.6,0-1.2,0-2.1l0,0l0,0c0-0.3,0-0.9,0-1.2l0,0l0,0
			c0,0,0-0.3,0-0.6l0,0c0,0,0-0.3,0-0.6V144l0,0c0,0,0,0,0-0.3c0-0.3,0-0.3,0-0.3c0-1.2,0-2.7,0-3.9l0,0l0,0l0,0l0,0c0,0,0,0,0-0.3
			l0,0c0,0,0-0.3-0.3-0.3c-0.3,0,0,0.6-0.3,0.9c0.3,0,0-0.3,0-0.3s0.3,0.6,0,0.6c0,0.3,0,0.6,0,0.6v0.3l0,0v0.3l0,0l0,0
			c0,0,0,0.3,0,0.6l0,0c0,0,0,0.6,0,0.9c0,1.5,0,3.3,0,5.1c0,0.9,0,3,0,4.2l0,0c0-0.6,0.6-0.6,0.6-0.9c-0.3,0.3,0.3,1.5,0.3,1.5
			c0-0.3,0-0.3,0-0.6l-0.6-0.3c-0.3,0.3-0.3,0.3-0.3,0.6c-0.3,0-0.3,0.6-0.6,0.6c0-0.3,0-0.6,0-1.2s0-1.5,0-2.1c0-0.3,0,0,0-0.3
			c0-0.3,0-0.6,0-0.9l0,0c0-0.3-0.3-0.3,0-0.6l0,0c0,0,0,0,0-0.3c0,0,0,0,0-0.3c0,0,0,0,0-0.3c0,0,0,0,0-0.3c0,0,0,0,0-0.3
			c0-0.6,0-1.8,0-2.4c0-1.5,0-2.7,0-4.2v-0.3c0-0.3,0-0.3,0-0.3c0-0.3,0-0.3,0-0.6c0,0,0,0,0-0.3c0,0,0,0,0-0.3s0-0.6,0-0.9
			c0,0.3,0,0.6,0,0.9c0,0.9,0,1.8,0,2.7c0,0.3,0,1.2,0,2.1l0,0l0,0v0.3l0,0c0,0,0,0,0,0.3l0,0l0,0c0,0,0,0,0,0.3
			c0,0.3,0.3,0.9,0,1.5c0,0.3,0,1.2,0,1.8c0,0.9,0,2.1,0,3v0.3v0.3c0,0.3,0.3,0.6,0,0.9c-0.3,0-0.3-0.3-0.3-0.6l0,0c0,0,0,0,0-0.3
			c0,0,0,0,0-0.3l0,0c0,0,0,0,0-0.3c0-0.3,0-0.3,0-0.3v-0.3c0,0,0,0,0-0.3c0-0.9,0-2.1,0-3c0-1.2,0-2.7,0-3.9c0,0,0,0,0-0.3
			c0-0.3,0,0,0-0.3c0,0,0,0,0-0.3c0-0.3,0,0,0-0.3c0-0.3,0-0.3,0-0.6c0-0.3,0-0.3,0-0.6v-0.3v-0.3c0-0.9,0-2.1,0-3
			c-0.3-0.3-0.9,0-1.2,0c0,0,0,0.3,0,0.6c0,0.3,0,0.6,0,0.9c-0.3,0,0-0.3,0-0.6c0-0.3,0-0.6,0-0.9c0-0.3-0.3,0-0.3,0.3
			c-0.3-0.3-1.2,0-1.5-0.3c-0.3,0,0,0.3-0.3,0.3c0,0.3,0.6,0.3,0.3,0.6c0.3,0.3,0.6,0.6,0.6,0.9c0.3,0,0.3,0.3,0.6,0.6
			c0.3,0,0-0.3,0.3-0.3c0,0.3,0,0.3,0,0.6l0,0c0,0,0,0.3,0,0.6l0,0c0,0,0,0,0,0.3l0,0l0,0l0,0c0,0,0,0,0,0.3v0.3c0,0.9,0,1.8,0,2.4
			c0,0.3,0,0.9,0,1.8c0,0.3,0,0.6,0,0.9l0,0c0,0,0,0,0,0.3c-0.3,1.8,0,3.9-0.3,6c-0.3-0.3,0-0.6,0-0.6l0,0c0,0,0,0,0-0.3
			c0,0,0,0,0-0.3l0,0c0-3.6,0-6.6,0.3-10.2c0-0.3-0.3-0.3-0.3-0.6c0,0-0.6,0-0.6-0.3c0-0.3-0.9-0.6-0.9-0.6v-0.3
			c0-0.3-0.3-0.6-0.3-0.9c0,0,0,0-0.3-0.3c0-0.3,0-0.3,0-0.6c0,0-0.3,0,0-0.3c-0.3,0-0.3,0-0.6,0l-0.3-0.3c-0.9,0-1.8-0.3-2.7-0.6
			c-0.3-0.9,0-1.8,0-2.7c0.9,0,1.8-0.3,2.7-0.3c0.3,0,0.9-0.3,1.2-0.3c0.3-0.3,0.3-0.6,0.6-0.9c0-0.3,0-0.6,0.3-0.9
			c-0.6-0.6-1.2-1.5-1.2-2.4c0-0.3,0-0.3,0-0.6s0-0.6,0-0.9c0,0,0,0,0-0.3c0-0.3,0-0.3,0.3-0.3v-0.3l0.3-0.3l0.3-0.3
			c0.3-0.3,0.6-0.3,0.6-0.6c0.9-0.3,1.8-0.6,3-0.6c0.6,0,1.2,0.3,1.8,0.6c0.3,0.3,0.6,0.6,0.9,0.9c0.3,0.3,0.6,0.6,0.6,0.9
			c0,0,0,0.3,0.3,0.3c0,0.6,0,0.9,0.3,1.2C260.3,128.1,259.7,128.7,258.8,129.6z M257.3,122.9C257,122.9,257.3,122.6,257.3,122.9
			c0,0,0.6,0.3,0.6,0C257.6,122.9,257.3,122.6,257.3,122.9c0-0.3-0.6,0-0.6,0C257,122.9,257.3,122.9,257.3,122.9z M256.7,122.6
			C257,122.6,257,122.6,256.7,122.6c-0.3,0-0.3,0-0.3-0.3c-0.3,0.3-0.9,0-1.2,0c-0.3,0-0.6,0.3-0.6,0.3
			C255.2,122.9,256.1,122.9,256.7,122.6z M255.8,122.9c-0.6,0-0.9,0-1.2,0.3c-0.3,0-0.6,0.6-0.9,0.3c0.3,0,0.3-0.3,0.6-0.3
			c0,0,0.3,0,0,0c0,0,0,0-0.3,0c0,0,0-0.3-0.3-0.3c-0.3,0,0-0.3,0-0.3h-0.3c0,0,0,0.6-0.3,0.6c0,0.3-0.3,0.6-0.3,0.6l0,0
			c-0.3,0-0.6,0.3-0.6,0.9c0,0,0,0-0.3,0v0.3c-0.3,0-0.3,0.3-0.3,0.3c0,0.3-0.3,0.6,0,0.6l0,0c0,0-0.3,0-0.3,0.3c0,0,0.3,0,0,0.3
			c0,0,0,0.3,0,0.6c0,0,0,0,0.3,0.3v0.6v-0.3c0,0.3,0.3,0.3,0.3,0.3c0,0.3,0.6,0.6,0.3,0.9c0.3,0,0.3,0.6,0.6,0.6
			c0-0.3,0.3-0.6,0.3-0.9c-0.3,0-0.3-0.3-0.3-0.3c0-0.3-0.3-0.3-0.3-0.3c0-0.3,0-0.9,0-1.2c0-0.3,0-0.3,0-0.6
			c0.3-0.3,0.3-0.6,0.6-0.9c0.3-0.3,0.6-0.6,1.2-0.9c-0.3,0.3-0.3,0.3-0.6,0.6c0,0.3-0.3,0.3-0.3,0.3c0.3-0.3,0.6-0.6,1.2-0.9
			c0.6-0.3,1.2,0,2.1,0c-0.3,0.3,0.6,0.3,0.3,0.6c-0.3-0.3-0.9-0.3-1.5-0.3c-0.3,0.3-0.6,0.3-0.9,0.3c-0.3,0.3-0.6,0.3-1.2,0.3
			c0,0.3-1.2,0.6-1.2,0.9v0.3c0,0,0.3,0,0.3,0.3h0.3c0.3-0.9,1.2-1.8,2.1-1.8c0.3,0,0.9,0,1.2,0.3c-0.3,0-0.6,0-0.9,0l0,0
			c0.3,0,0.6,0,0.9,0c0,0,0.3,0.3,0.3,0c0,0-0.3,0-0.3-0.3c0.3,0,0.3,0.6,0.6,0.3c0,0,0,0-0.3-0.3c0,0,0.3,0.3,0.3,0l-0.3-0.3
			c0.3,0,0.6,0.3,0.3,0.6c0.6,0,0.9,1.8,0.6,2.1c0,0.3,0,0-0.3,0c0,0.6-0.6,0.6-0.3,0.9c0,0,0,0,0.3,0c0,0.3,0,0.3,0.3,0.3
			c0,0-0.3,0.3,0,0.6c0-0.3,0.3-0.3,0.3-0.3s0,0,0-0.3c0,0,0,0,0.3-0.3c0,0,0,0,0.3,0c0,0,0,0,0-0.3c0,0,0,0,0.3,0v-0.3
			c0,0,0,0,0.3-0.3c0,0,0-0.3,0.3-0.3c0-0.6,0-0.9,0-1.5c0-0.3-0.3-0.6-0.3-0.6v-0.3l-0.3-0.3v-0.3c-0.3-0.3-0.6-0.6-0.9-0.9
			c-0.3,0-0.3,0-0.3-0.3c-0.3,0-0.3,0-0.6-0.3c0.9,0,1.2,0.6,1.8,0.9c0,0.3,0.3,0.3,0.6,0.6c0,0,0,0.3,0.3,0c-0.3-0.3,0.3,0,0.3-0.3
			c0,0,0-0.3-0.3-0.3s0,0.3-0.3,0.3C258.5,123.6,257,122.9,255.8,122.9z M256.4,122.6c-0.3,0-0.6,0-0.6,0S256.1,122.6,256.4,122.6z
			 M258.2,126c-0.3,0,0-0.3-0.3-0.6c0,0,0,0-0.3,0c0,0,0-0.3-0.3-0.3H257c-0.3,0-0.3-0.3-0.3-0.3c-1.5-0.6-3,0.3-3.3,1.8
			c0,0,0,0.9,0.3,1.2c0.3,0,0.3,0,0.3,0h0.3c0.3,0,0.6-0.3,0.6-0.3c0.3,0,0.9-0.3,1.2-0.3c0.6,0,0.9,0.6,1.5,0.6
			C258.2,127.5,258.5,126.9,258.2,126z M253.7,126L253.7,126c0-0.3,0.3-0.9,0.9-1.2c0.3,0,0.3-0.3,0.6-0.3
			C254.6,124.8,254,125.1,253.7,126z M261.2,131.1c0.3,0.9,0.3,1.5,0.3,2.4c0.3,0,0.9,0,1.5,0c0.3,0,1.2,0,0.9-0.3c0,0.3,0,0-0.3,0
			c-0.3,0-0.6,0-0.9,0s-0.9,0-1.2,0c0-0.3,0.3,0,0.6,0c0.3,0,0.6,0,0.6,0c0.6,0,0.9,0,1.2-0.3c-0.6,0-1.5,0-1.8,0
			c-0.3,0-0.3,0-0.6-0.3c0.9,0,1.5,0,2.4,0v-0.3c0-0.3,0-0.3-0.3-0.3c0.3,0,0-0.3,0-0.6c-0.3,0-0.6,0-0.9,0c0,0,0,0-0.3,0
			C262.1,131.4,261.5,131.4,261.2,131.1c0.6,0,1.2,0.3,1.5,0.3c0.3,0,0.3,0,0.6,0c0,0,0.6,0.3,0.6,0
			C262.7,131.4,262.1,131.1,261.2,131.1z M266,150.6c-0.3,0-0.3,0.3-0.3,0.3c-0.3,0-0.6,0.3-0.6,0.6c0.3,0,0.3,0,0.6,0
			c0.6-0.6,1.2-1.2,1.8-2.1c0.3-0.6,0.6-0.9,0.6-1.5c0-0.3,0.3-0.6,0.3-0.9C268.1,148.5,267.2,149.4,266,150.6z M266.6,154.5
			C266.6,154.8,266.3,154.8,266.6,154.5c-0.3,0.3-0.6,0.6-0.6,0.9c-0.3,0.3-0.3,0.3-0.6,0.6c0,0,0,0,0,0.3c0,0,0,0-0.3,0.3
			c-0.3,0.3-0.9,0.9-1.2,0.9c0,0,0,0-0.3,0.3h-0.3c0,0,0,0,0,0.3c-0.3,0.3-0.3,0.3-0.6,0.3c-0.6,0.6-1.5,0.9-2.1,1.2
			c-0.3,0-0.3,0.3-0.6,0.3c-0.3,0.3-0.6,0.3-0.6,0.6c-0.3,0-0.3,0-0.3,0.3c0,0-0.3,0-0.3,0.3c0,0-0.3,0-0.3,0.3c0,0-0.3,0-0.3,0.3
			l-0.3,0.3c-0.3,0.3-0.3,0.3-0.6,0.6c-0.3,0.3-0.6,0.6-0.6,0.9l0,0c0,0,0,0,0-0.3c0.3-0.3,0.6-0.6,0.9-0.9c0.3-0.3,0.6-0.6,1.2-0.9
			c0.9-0.6,2.1-1.2,3-1.5c0.3-0.3,0.3-0.3,0.6-0.3c0,0,0.3,0,0.3-0.3C264.5,157.3,265.7,156.1,266.6,154.5
			C266.6,154.2,266.6,154.5,266.6,154.5z M266.6,154.5C266.3,154.5,266.3,154.8,266.6,154.5c-0.3,0.3-0.6,0.3-0.6,0.6
			c0,0-0.3,0.3-0.3,0.6h-0.3v0.3c0,0,0,0-0.3,0c0,0,0,0,0,0.3c-0.3,0.3-0.9,0.9-1.5,1.2c-0.3,0.3-0.6,0.3-0.6,0.6
			c-0.3,0-0.6,0.3-0.6,0.3s-0.3,0-0.3,0.3c0,0,0,0-0.3,0l-0.3,0.3c-0.3,0-0.3,0-0.6,0.3c-0.3,0.3-0.6,0.3-0.9,0.6
			c-0.3,0-0.3,0.3-0.6,0.3h-0.3c0,0,0,0.3-0.3,0.3c0,0,0,0-0.3,0c0,0,0,0,0,0.3h-0.3l-0.3,0.3c0.3,0,0.3-0.3,0.6-0.3
			c0.9-0.6,2.1-1.2,3-1.5c0.3,0,0.3-0.3,0.3-0.3s0,0,0.3,0c0.6-0.3,1.2-0.9,1.8-1.2c0.6-0.6,1.2-0.9,1.8-1.5
			C266,155.1,266.3,154.8,266.6,154.5c0.3-0.3,0.3-0.3,0.6-0.6c0.3,0,0.3-0.3,0.3-0.3s0.3-0.3,0-0.3
			C267.2,153.6,266.6,153.9,266.6,154.5z M267.2,153.9c0,0,0.3-0.3,0.3-0.6C267.2,153.6,266.9,153.9,267.2,153.9z M249.8,160.6
			c0-0.3,0-0.3-0.3-0.3C249.5,160.6,249.8,160.6,249.8,160.6z M246.1,150.3c0.3,0,0.3,0.3,0.6,0.3c0,0,0.3,0.3,0.3,0.6
			C246.4,150.9,246.1,150.6,246.1,150.3c-0.3-0.3-0.6-0.3-0.6-0.6c-0.3,0-0.3-0.6-0.6-0.6c0.3,0.3,0.3,0.3,0.3,0.6
			c0,0,0.3,0,0.3,0.3c0,0,0,0.3,0.3,0.3c0.3,0.3,0.6,0.6,0.9,0.9c0,0,0.3,0,0.3,0.3c-0.3,0-0.3-0.3-0.6-0.6c0,0.3,0.3,0.3,0.3,0.6
			c-0.6-0.3-0.9-0.9-1.2-1.2c0.3,0,0.3,0.3,0.3,0.3l0.3,0.3c-0.3-0.6-0.9-0.9-1.2-1.5c0,0,0-0.3-0.3,0c0,0,0,0.3,0.3,0.3
			c0,0.9,0.9,1.2,0.9,1.8c0.6,0.3,0.9,0,1.5,0c0-0.3-0.3-0.3-0.6-0.6c-0.6-0.6-0.9-0.9-1.5-1.5c0-0.3-0.3-0.6-0.6-0.6
			c0,0,0-0.3-0.3,0C245.2,149.1,245.5,149.7,246.1,150.3z M250.4,154.8c0.3,0,0.6,0.3,0.6,0c-0.3,0,0,0,0,0s-0.3,0-0.3-0.3
			c0.3,0,0.6,0,0.3-0.3h0.3c0-0.3,0-0.3,0-0.3c-0.3,0-0.3-0.3-0.6-0.3c0,0.3-0.3,0.3-0.6,0.3v0.3c0,0,0,0-0.3,0
			C250.7,154.8,250.7,154.8,250.4,154.8z M257.3,150C257.6,150,257.6,150,257.3,150c0.3-0.3,0.3,0,0.3,0c0.3,0.3,0-0.3,0.3-0.3v0.3
			c0-0.3,0-0.6,0-0.6c-0.3,0,0,0.3-0.6,0.3C257.3,149.7,257.3,150,257.3,150z M259.1,148.8c0,0.3,0,0.3,0,0.3c0.6,0,0-0.3,0.3-0.6
			c0,0,0,0.3,0.3,0.3c0-0.3,0-0.3,0.3-0.3c0-0.3,0-0.3-0.3-0.3C259.4,148.5,259.1,148.5,259.1,148.8z M260.6,145.5
			c0,0.3,0.6,0.3,0.3,0.6c0.3,0,0.3,0,0.6,0c0-0.3-0.3-0.3-0.3-0.3s0.3,0.3,0.3,0c-0.3,0-0.3-0.3-0.3-0.3
			C260.9,145.5,260.6,145.5,260.6,145.5z M251.3,133.8c0,0,0-0.3,0.3-0.3c0,0.3,0,0.9,0.3,1.5h0.3c-0.3,0-0.3,0,0-0.3h-0.3
			c0-0.3,0.3,0,0.3-0.3c-0.3,0-0.3,0-0.3-0.3c0-0.3,0.6,0,0.3-0.3C251.6,133.8,251.3,134.1,251.3,133.8c0.3,0,0.6,0.3,0.6,0
			C251.6,133.8,251.3,133.8,251.3,133.8c0.3-0.3,0.6,0,0.6-0.3h-0.3c0.3,0,0.3,0,0.6-0.3c-0.3,0-0.6,0-0.3-0.3h0.3
			c-0.3,0,0-0.3,0-0.3c0-0.3-0.3,0-0.6-0.3c0.3,0,0.6,0,0.3-0.3h-0.6c0.3,0,0.3,0,0.6,0c0.3-0.6,0.3-0.9,0.3-1.2c-0.3,0-0.6,0-0.3,0
			h0.3c-0.6,0-0.6,0-0.6,0.3c0-0.3-0.3,0-0.6,0c-0.3,0-0.3,0-0.6,0c-0.6,0-0.9,0.3-1.5,0.3c0,0.3,0.3,0,0.3,0.3c-0.3,0-0.3,0-0.3,0
			c0,0.3-0.3,0.3-0.3,0.6c0,0.3,0,0,0.3,0.3v0.3c0.3,0,0.6,0,0.9,0h0.3l0,0c0.3,0,0.3,0,0.6,0c0.3,0,0.6,0,0.6,0.3
			c-0.6,0-1.5,0-2.1,0c-0.3,0-0.3-0.3-0.6,0h0.3c0.3,0,0.9,0,0.9,0c0.3,0,0.6,0,0.6,0c0.3,0,0.6,0,0.6,0.3c-0.6,0-1.2,0-2.1,0
			c-0.3,0-0.3-0.3-0.6,0c0.9,0,1.2,0.3,2.1,0.3C250.7,133.5,251.3,133.2,251.3,133.8c-0.3,0-0.9-0.3-0.9-0.3
			C250.7,133.8,251,133.8,251.3,133.8z M255.2,124.5c0.3,0,0.3,0,0.3-0.3C255.5,124.2,255.2,124.2,255.2,124.5z M253.7,124.8
			L253.7,124.8L253.7,124.8z M253.4,125.4C253.4,125.7,253.4,125.4,253.4,125.4c-0.3,0.6,0,1.2-0.3,1.8c0,0,0,0.3,0.3,0.6
			c0-0.3-0.3-0.6-0.3-0.9c0-0.3,0,0,0-0.3c0,0,0,0,0-0.3c0-0.6,0.3-0.9,0.3-1.5C253.4,125.1,253.4,125.4,253.4,125.4z M253.7,126.3
			C253.7,126.3,253.4,126.3,253.7,126.3C253.4,126.3,253.7,126.3,253.7,126.3z M253.4,126.9c0.3,0,0.3-0.9,0.3-0.6
			C253.7,126.6,253.4,126.6,253.4,126.9z M253.7,127.5c0,0,0-0.6-0.3-0.3C253.4,127.5,253.7,127.5,253.7,127.5L253.7,127.5z
			 M254,127.5c0,0.3-0.6,0.6-0.3,0.9c0.3,0,0.9,0,0.6,0c0,0-0.3,0-0.3-0.3c0.3,0,0.3-0.3,0.3-0.6C254.3,127.5,254.3,127.5,254,127.5
			z M253.4,128.1C253.4,128.1,253.4,127.8,253.4,128.1L253.4,128.1C253.7,128.1,254,127.8,253.4,128.1
			C253.7,128.1,253.7,128.1,253.4,128.1z M253.4,129c0.3,0,0.6,0,0.9,0h-0.6c0.3,0,0.6,0,0.6-0.3c-0.3,0,0-0.3,0-0.3
			c-0.3,0-0.6,0-0.9,0C253.4,128.7,253.4,129,253.4,129z M253.1,129.9c0.3,0,0.3,0,0.6,0v-0.3h0.3h-0.3h0.3
			C253.4,129.3,253.1,129.3,253.1,129.9z M254.3,129.6L254.3,129.6L254.3,129.6z M254.3,129.9C254.6,129.9,254.6,129.9,254.3,129.9
			C254.3,129.6,254.3,129.9,254.3,129.9z M253.7,130.8c0.3-0.3,0.6,0,0.6,0l0,0h0.3c0,0,0-0.3,0.3-0.3c0,0,0,0,0-0.3c0,0,0,0,0-0.3
			c-0.3,0-0.6-0.3-0.9-0.3C254,130.2,253.4,130.5,253.7,130.8z M252.8,130.2c0,0.3,0,0.3,0,0.3c0.3,0,0.6,0,0.6-0.3h-0.3l0.3-0.3
			C253.4,130.2,253.4,130.2,252.8,130.2C253.1,130.2,252.8,130.2,252.8,130.2z M259.7,130.8c0.3,0,0.9,0.3,0.9,0
			C260.3,130.8,259.7,130.5,259.7,130.8z M252.5,131.4c0.3-0.3,0.3,0,0.6-0.3l0,0c0,0,0.3,0,0.3-0.3
			C252.8,130.8,252.2,131.1,252.5,131.4z M260.6,134.4c-0.3,0-0.3,0-0.6,0s-0.3,0-0.3-0.3c0,0,0.6,0,0.6-0.3H260
			c0.3,0,0.6-0.3,0.9,0C260.9,134.1,260.6,133.8,260.6,134.4c0-0.3,0.3-0.3,0.3-0.3c0-1.2,0.3-2.1-0.3-3.3H260h0.3
			c-0.3,0-0.3,0.3-0.6,0l0.3,0.3c-0.3,0-0.3,0-0.6,0c0.3,0,0.3,1.2,0.3,2.1c-1.5,0.3-3.9,0-5.7,0c-0.3,0-0.6-0.3-0.6,0
			c1.2,0,2.7,0,3.6,0c0.6,0,1.2,0,1.2,0c0.3,0,0.3,0,0.6,0c0,0,0.6,0,0.6,0.3c-0.6,0-1.2,0-1.5,0c-1.2,0-2.4,0-3.3,0
			c-0.3,0-0.9,0-0.9,0c1.5,0.3,3.9,0,5.1,0c0.3,0,0.3,0,0.6,0c0.3,0,0.6,0,0.6,0c0,0.6,0,0.9-0.3,1.2h0.6c0,0-0.3,0-0.3-0.3
			C260.3,134.7,260.6,134.4,260.6,134.4C260.9,134.1,260.9,134.4,260.6,134.4z M252.2,132.3c0,0,0.3-0.3,0.6-0.3
			c0-0.3,0-0.3,0.3-0.3c0.3,0,0,0.3,0.3,0.3c0-0.3,0-0.3-0.3-0.3c0-0.3,0-0.3-0.3-0.3h0.3C252.5,131.4,251.9,132,252.2,132.3z
			 M252.2,133.2c0.3,0,0.6,0,0.6-0.3h-0.3c0,0,0.3,0,0.3-0.3h-0.3c0.3-0.3,0.3,0,0.3-0.3h-0.3l0,0c0,0,0,0,0.3-0.3
			C252.5,132.6,251.9,132.6,252.2,133.2z M259.4,132c-1.2,0-2.4,0.3-3.3,0.3v0.3l0,0c-0.3,0-0.6,0-0.6,0l0,0c0,0,0,0-0.3,0h-0.3
			c-0.3,0-0.3-0.9-0.6-0.9c-0.3,0-0.9-0.6-0.9-0.6c2.1,0,4.2,0,6.3,0C260,131.4,259.7,132,259.4,132z M251.9,133.5
			c0.3,0,0.3,0.3,0.3,0.6c0.3,0,0.6-0.3,0.3-0.6h0.3c-0.3,0,0,0,0-0.3C252.5,133.5,252.2,133.5,251.9,133.5z M249.2,133.5
			c0.3,0-0.3,0-0.3,0s-0.3-0.3-0.3,0C248.9,133.5,249.2,133.5,249.2,133.5z M250.1,133.5c-0.3,0-0.6,0-0.6,0
			S250.1,133.8,250.1,133.5z M263.3,133.8c0.9,0-0.3-0.3-0.3,0C263.3,133.8,263.3,133.8,263.3,133.8z M248.6,133.8
			C248.9,133.5,248.3,133.8,248.6,133.8L248.6,133.8z M261.8,133.8c-0.3,0-0.6-0.3-0.6,0C261.5,133.8,262.1,133.8,261.8,133.8z
			 M262.7,133.8c-0.3,0-0.6,0-0.6,0C262.4,133.8,262.7,133.8,262.7,133.8z M249.2,133.8C249.2,133.8,248.9,133.8,249.2,133.8
			C248.9,133.8,249.2,133.8,249.2,133.8z M259.7,133.8c-0.3,0-0.6,0-0.9,0c-0.3,0-0.6,0-0.6,0.3c0.3,0,0.9,0,1.2,0
			C259.4,133.8,260,134.1,259.7,133.8L259.7,133.8z M249.8,137.4L249.8,137.4C249.2,137.4,249.8,137.4,249.8,137.4z M254,133.8
			L254,133.8c-0.3,0-0.3,0-0.3,0S254,134.1,254,133.8z M254.6,137.4L254.6,137.4C254,137.4,254.6,137.4,254.6,137.4z M263.3,134.1
			h0.3C263.6,134.1,263.6,133.8,263.3,134.1C263.9,134.1,263.3,134.1,263.3,134.1z M248.9,133.8L248.9,133.8
			C248.9,134.1,248.9,134.1,248.9,133.8z M250.1,133.8C250.1,133.8,249.8,133.8,250.1,133.8C250.1,134.1,250.1,134.1,250.1,133.8z
			 M257.3,134.1c0.3,0,0.6,0,0.6,0c-0.6,0-1.2,0-1.5,0c-0.3,0-0.6,0-0.9,0h-0.3c0,0,0,0-0.3,0h-0.3
			C255.8,133.8,256.7,134.1,257.3,134.1z M263.3,137.4L263.3,137.4C262.7,137.4,263.3,137.4,263.3,137.4z M250.4,134.1
			c-0.3,0-0.9-0.3-1.2,0C249.5,134.1,250.1,134.4,250.4,134.1z M250.7,134.1c0.3,0,0.6,0,0.6,0.3C251,134.4,250.4,134.1,250.7,134.1
			c0.3,0.3,0.3,0.3,0.6,0.3v-0.3C251,134.1,250.4,134.1,250.7,134.1z M252.5,134.4c0-0.3,0.3-0.3,0.3-0.3
			C252.5,134.1,252.2,134.1,252.5,134.4z M252.5,134.7L252.5,134.7c0.3-0.3,0-0.3,0-0.3s0.3,0,0.3-0.3c-0.3,0.3-0.6,0.3-0.3,0.9
			c0.3,0,0.6-0.6,0.6-0.6C252.8,134.7,252.8,134.7,252.5,134.7z M262.7,137.4L262.7,137.4C262.1,137.4,262.7,137.4,262.7,137.4z
			 M261.8,134.1L261.8,134.1L261.8,134.1z M248.9,134.1L248.9,134.1L248.9,134.1z M259.4,134.4h-0.3c0,0-0.3,0,0,0
			c0.3,0,0.6,0,0.6,0S259.7,134.1,259.4,134.4C259.7,134.4,259.4,134.1,259.4,134.4z M261.2,134.7
			C261.5,134.4,261.8,134.4,261.2,134.7c-0.6-0.3,0.6-0.3,0.3-0.3C261.2,134.1,260.9,134.4,261.2,134.7z M263.3,137.4L263.3,137.4
			C262.7,137.4,263.3,137.4,263.3,137.4z M249.5,134.4C249.5,134.4,249.2,134.1,249.5,134.4L249.5,134.4z M249.8,134.4
			C249.2,134.4,250.1,134.7,249.8,134.4C250.1,134.4,249.8,134.4,249.8,134.4z M254,134.4C254,134.1,253.7,134.4,254,134.4
			c0.3,0,0.9,0.3,1.2,0C254.9,134.4,254.6,134.4,254,134.4z M255.5,134.4L255.5,134.4L255.5,134.4z M251,134.7
			C251,134.7,251.6,134.7,251,134.7l-0.6-0.3C250.4,134.7,250.7,134.7,251,134.7z M257.9,134.4c-0.3,0-0.6,0-0.9,0
			C257.3,134.4,257.9,134.7,257.9,134.4z M253.7,134.7c0.3,0,0.6,0,0.9,0c0,0,0,0,0.3,0c0,0,0.3,0.3,0.3,0
			C254.6,134.4,254,134.4,253.7,134.7z M259.7,137.4C259.7,137.4,259.4,137.4,259.7,137.4C259.1,137.4,259.7,137.4,259.7,137.4z
			 M260.6,134.7C261.5,134.4,260,134.7,260.6,134.7L260.6,134.7z M259.1,134.7L259.1,134.7c-0.3,0-0.6,0-0.6,0
			C258.8,134.7,259.1,134.7,259.1,134.7z M261.5,134.7C261.5,134.7,261.2,134.7,261.5,134.7C261.2,134.7,261.5,134.7,261.5,134.7z
			 M258.2,134.7C258.2,134.7,257.9,134.7,258.2,134.7L258.2,134.7z M258.5,137.4L258.5,137.4C257.9,137.4,258.5,137.4,258.5,137.4z
			 M253.7,137.4L253.7,137.4C253.1,137.4,253.7,137.4,253.7,137.4z M257.3,135.3c0,0,0-0.6,0-0.3C257.3,135,257.3,135.6,257.3,135.3
			z M258.8,135c0.3,0,0.6,0,0.9-0.3C259.1,135,258.8,134.7,258.8,135z M260,135c0.3-0.3,0.6,0,0.9-0.3
			C260.6,135,259.7,134.7,260,135z M254.9,135c-0.3,0-0.6,0-0.9,0C254.3,135,254.6,135,254.9,135z M252.5,135.9
			c0.3,0,0.3-0.3,0.3-0.3c-0.3,0-0.3-0.3,0-0.3c0,0,0-0.3-0.3-0.3C252.5,135.3,252.5,135.6,252.5,135.9z M258.5,135
			C258.5,135,258.2,135,258.5,135C258.2,135,258.5,135,258.5,135z M257.3,143.7L257.3,143.7c0-0.3,0-0.3,0-0.6l0,0l0,0
			c0,0,0,0,0-0.3l0,0c0-2.4,0-5.1,0-7.5c-0.3,0,0,0.3,0,0.6c0,2.1,0,4.5,0,6.3c0,0.9,0,1.5,0,2.1
			C257.6,144.6,257.3,143.7,257.3,143.7z M252.8,135.9c0,0.3,0,0.9,0.3,0.9c0-0.3,0-0.3,0.3-0.6c0,0,0,0,0-0.3c0,0,0.3-0.3,0-0.3
			c0,0,0,0.3-0.3,0.3c0,0,0.3-0.3,0-0.3C253.1,135.9,253.1,136.2,252.8,135.9C253.1,136.2,253.1,135.9,252.8,135.9
			C253.1,135.9,252.8,135.9,252.8,135.9z M255.8,142.8C255.8,143.1,255.8,143.1,255.8,142.8c0-2.4,0-4.5,0-6.9l0,0
			C255.8,138.3,255.8,140.7,255.8,142.8z M253.7,136.8c-0.3,0.3-0.3,0.9,0,0.9c0-0.3,0.3-0.3,0-0.6c0,0,0,0.3-0.3,0
			C253.7,137.4,254,137.1,253.7,136.8c0,0.3,0,0.3,0,0.3V136.8z M253.4,136.5C253.4,136.8,253.4,136.8,253.4,136.5
			C253.4,136.8,253.7,136.8,253.4,136.5z M254,138c0-0.3,0.3-0.3,0-0.6c0,0.3,0,0-0.3,0c0,0.3,0,0.9,0.3,0.9
			C254.3,138,254.6,137.7,254,138C254.3,137.7,254.3,138,254,138z M254.6,138.6c0-0.3,0-0.6,0-0.6s0.3-0.3,0-0.3
			C254.6,138,254,138.6,254.6,138.6z M258.2,141C258.5,141,258.5,141,258.2,141C258.5,140.7,258.2,141,258.2,141z M258.5,141.3
			c0.3,0,0.6,0,0.6-0.3C258.8,141.3,258.5,141,258.5,141.3z M258.8,141.6c0.3,0,0.6,0,0.6-0.3C258.8,141.3,258.8,141.3,258.8,141.6z
			 M259.1,141.9c0,0.3,0.9,0.3,0.9,0c-0.3,0-0.6,0-0.3-0.3C259.4,141.6,259.1,141.6,259.1,141.9z M259.4,142.5
			c0.3,0.3,0.6,0.3,0.9,0.3c0-0.3-0.3-0.3-0.3-0.3C260,142.2,259.7,142.2,259.4,142.5z M257.6,144c0.3,0,0-0.6,0-0.3
			C257.9,143.7,257.6,144,257.6,144z M260.9,144.3c0-0.3,0.3,0.3,0.3,0c0,0,0-0.6-0.3-0.6h-0.3C260.6,144,260.6,144.3,260.9,144.3z
			 M257.6,144.3C257.9,144.3,257.9,144.3,257.6,144.3c0.3,0,0.3-0.3,0.3-0.3s0,0-0.3,0C257.6,144.3,257.6,144.3,257.6,144.3z
			 M257.9,144.9c0-0.3,0-0.6-0.3-0.3C257.9,144.6,257.6,144.9,257.9,144.9z M257.3,148.2L257.3,148.2L257.3,148.2c0-0.9,0-1.8,0-2.7
			c0-0.3,0-0.6,0-0.9C257.3,145.5,257.3,147,257.3,148.2z M261.5,144.9c0-0.3-0.3-0.3-0.6-0.3c0,0-0.3,0.3-0.3,0.6
			C260.9,145.2,261.2,145.5,261.5,144.9C261.2,145.2,261.2,145.2,261.5,144.9C261.2,144.9,261.2,145.2,261.5,144.9
			C261.2,145.2,261.2,144.9,261.5,144.9C261.2,144.9,261.2,144.9,261.5,144.9z M257.9,145.2C257.9,145.2,257.9,144.9,257.9,145.2
			C257.9,145.2,257.9,145.5,257.9,145.2z M257.9,146.7c0,0.3,0,0.9,0.3,0.9c-0.3,0,0-0.3,0-0.3l0,0l0,0l0,0
			C257.9,146.7,257.9,146.7,257.9,146.7c0-0.3,0.3-0.9,0-1.2C257.9,145.8,257.9,146.1,257.9,146.7z M260.3,146.7
			c0.3,0,0.3,0.3,0.6,0.3v-0.3c-0.3,0-0.3,0,0-0.3c0,0-0.3-0.3-0.6-0.3C260.6,146.4,260.6,146.4,260.3,146.7z M269,147
			C269,147,269,146.7,269,147L269,147z M260.6,147.3C260.6,147.3,260.9,147.3,260.6,147.3c0-0.3-0.3-0.3-0.6-0.3
			c0,0.3,0.3,0.3,0.6,0.6C260.9,147.3,260.6,147.3,260.6,147.3z M269.3,147.6C269.3,147.3,269.3,147.3,269.3,147.6
			C269,147.3,269.3,147.6,269.3,147.6z M260.3,147.6L260.3,147.6L260.3,147.6C260.3,147.6,260.6,147.6,260.3,147.6z M269,148.8
			L269,148.8c0,0.3,0,0.6,0,0.9s0,0.6,0,0.9s0,0.6,0,0.6s0,0.3-0.3,0.3c0,0.3,0,0.3,0,0.6c0,0.3-0.3,0.3-0.3,0.9
			c0.3,0,0.3-0.3,0.3-0.3c0.3-0.3,0.3-0.6,0.3-0.9c0.3-1.2,0.3-2.4,0.3-3.6c0,0,0-0.3,0,0C269,147.9,269,148.8,269,148.8z
			 M269.3,148.8c0,1.8-0.3,3-0.9,4.2c0.3,0,0.6-0.9,0.6-1.2s0-0.6,0.3-0.6c0.3-0.9,0.3-2.1,0.3-3.3v-0.3
			C269.3,147.9,269.3,148.5,269.3,148.8z M243.4,148.8c0-0.3,0-0.9,0-0.6C243.1,148.2,243.1,148.8,243.4,148.8z M269.6,148.8
			c0-0.3,0-0.9,0-0.6C269.6,148.5,269.3,149.1,269.6,148.8z M244.9,148.8c0,0-0.6-0.6-0.3-0.3C244.6,148.8,244.6,149.1,244.9,148.8z
			 M243.4,149.4c0,0.3,0,0.6,0.3,0.6C243.7,149.7,243.7,149.4,243.4,149.4c0-0.3,0-0.6,0-0.6v-0.3
			C243.4,148.8,243.4,149.1,243.4,149.4z M267.8,149.4c0-0.3,0.3-0.3,0.3-0.9l0,0C268.1,148.8,267.5,149.1,267.8,149.4z
			 M244.6,148.8L244.6,148.8L244.6,148.8z M258.2,149.4c0,0.3,0,0.3,0.3,0.6C258.5,149.7,258.2,149.4,258.2,149.4
			c0.3,0.3,0.3,0.3,0.3,0.6c0-0.3,0-0.3,0.3-0.3c0-0.3,0-0.6-0.3-0.6C258.5,149.1,258.2,149.1,258.2,149.4z M243.4,149.7
			c0,0,0-0.6,0-0.3C243.4,149.4,243.4,150,243.4,149.7z M259.1,149.4L259.1,149.4C259.4,149.4,258.8,149.1,259.1,149.4L259.1,149.4z
			 M243.1,149.7C243.1,149.4,243.1,149.4,243.1,149.7L243.1,149.7z M244,149.7C244,149.4,244,149.4,244,149.7L244,149.7z
			 M266.3,151.2c-0.3,0-0.3,0-0.3,0.3c0.6,0,0.6,0,0.9,0c0-0.3,0.6-0.3,0.3-0.6c0,0.3,0,0.3-0.3,0.3c0,0-0.3,0.3-0.3,0
			c0.3-0.3,0.6-0.6,0.9-1.2l0,0c0,0.3-0.3,0.6-0.3,0.6l-0.3,0.3c0,0,0,0-0.3,0.3C266.6,151.2,266.6,151.5,266.3,151.2
			c0.3,0,0.3-0.3,0.6-0.6c0-0.3,0.3-0.3,0.3-0.6c0-0.3,0.3-0.3,0.3-0.6C267.2,150,266.9,150.6,266.3,151.2z M244,149.7
			C244,149.7,244,149.4,244,149.7C243.7,149.7,244,150,244,149.7z M243.1,150L243.1,150C243.1,149.7,243.1,150,243.1,150
			C243.1,150.3,243.4,150.3,243.1,150z M243.7,150.3c-0.3,0,0-0.3-0.3-0.3C243.7,150.3,243.7,150.6,243.7,150.3z M244,150.6
			c0-0.3,0-0.3-0.3-0.6C244,150.3,244,150.3,244,150.6z M243.4,150.6c0-0.3,0-0.3-0.3-0.3C243.4,150.3,243.4,150.6,243.4,150.6z
			 M243.1,150.6C243.1,150.6,243.1,150.3,243.1,150.6C242.8,150.6,243.1,150.9,243.1,150.6z M256.4,150.6
			C256.4,150.6,256.4,150.3,256.4,150.6C256.4,150.6,256.4,150.9,256.4,150.6z M243.7,151.2C244,151.2,244,151.2,243.7,151.2
			c0,0.3,0,0.3,0.3,0.3C244.3,151.5,244,151.2,243.7,151.2v-0.6C243.7,150.9,244,150.9,243.7,151.2z M244.3,151.2
			C244.3,151.5,244.3,151.8,244.3,151.2c0,0,0-0.3-0.3-0.6v-0.3C244,150.9,244.3,151.2,244.3,151.2z M255.8,150.6
			c-0.3,0-0.3,0.6,0,0.9c0-0.3,0,0,0.3,0C256.1,151.2,256.4,150.9,255.8,150.6L255.8,150.6z M258.2,150.6L258.2,150.6
			C258.2,150.6,258.2,150.9,258.2,150.6z M243.7,150.9C243.7,150.9,243.4,150.6,243.7,150.9C243.4,150.6,243.7,150.9,243.7,150.9z
			 M269.6,150.9C269.6,150.9,269.3,150.9,269.6,150.9C269.3,150.9,269.6,150.9,269.6,150.9z M243.4,151.8
			C243.4,151.8,243.4,152.1,243.4,151.8c0,0.6,0.3,0.6,0.3,0.9c0,0.3,0.3,0.3,0.3,0.6c0.3,0,0.3-0.3,0.3-0.6c-0.3,0-0.3-0.6-0.6-0.6
			c0,0.3,0.3,0.6,0.3,0.9c-0.3-0.6-0.6-1.5-0.9-2.1v-0.3C243.1,151.2,243.1,151.8,243.4,151.8z M243.4,151.8
			C243.7,151.8,243.4,151.8,243.4,151.8c0-0.3,0-0.6-0.3-0.9C243.1,151.2,243.4,151.2,243.4,151.8z M244.6,150.9
			C244.6,150.9,244.3,150.9,244.6,150.9C244.3,150.9,244.6,151.2,244.6,150.9z M258.2,150.9L258.2,150.9
			C258.2,150.9,258.2,151.2,258.2,150.9z M254.6,151.2c0,0.3,0,0.6,0.3,0.6c0-0.3,0.3-0.3,0.3-0.6c0,0,0,0-0.3-0.3
			C255.2,151.2,254.9,151.2,254.6,151.2z M244,151.8c0,0,0-0.3-0.3-0.6C243.7,151.5,243.7,152.1,244,151.8z M244.6,151.5
			C244.6,151.2,244.6,151.2,244.6,151.5L244.6,151.5z M269.6,151.5C269.6,151.2,269.6,151.2,269.6,151.5L269.6,151.5z M253.7,151.8
			c0,0.3,0,0.6,0.3,0.6c0.3,0,0-0.6,0.3-0.6c0,0,0,0.3,0.3,0.3c0-0.3,0.3-0.3,0.3-0.6C254,151.5,254,151.8,253.7,151.8z
			 M245.2,153.3c0-0.3-0.3-0.6-0.3-0.9c0,0,0-0.3-0.3-0.3c0,0,0-0.3-0.3-0.3C244.9,152.4,244.9,153,245.2,153.3z M244.3,152.7
			C244.3,152.7,244.3,152.4,244.3,152.7c-0.3,0-0.3,0.3,0,0.3c0.3-0.3,0-0.9-0.3-0.9C244.3,152.1,244.3,152.4,244.3,152.7z
			 M244.9,152.1C244.9,151.8,244.9,151.8,244.9,152.1L244.9,152.1z M267.8,152.7c0-0.3,0.3-0.3,0.3-0.6c0,0,0-0.3,0,0L267.8,152.7z
			 M245.2,152.7c0.3,0.3,0-0.3,0-0.6c0,0-0.3,0,0,0C244.9,152.4,245.2,152.4,245.2,152.7z M245.2,152.1L245.2,152.1
			C245.2,152.4,245.5,152.4,245.2,152.1z M253.7,152.7c0,0,0-0.3,0-0.6c-0.6,0-0.6,0.6-0.3,0.6c0-0.3-0.3-0.3,0-0.3
			C253.4,152.4,253.4,152.7,253.7,152.7z M269.3,152.4C269.3,152.4,269,152.1,269.3,152.4C269,152.4,269.3,152.4,269.3,152.4z
			 M256.7,152.7C256.7,152.7,256.7,152.1,256.7,152.7C256.4,152.7,256.4,153,256.7,152.7z M245.5,153c0-0.3,0-0.3-0.3-0.3
			C245.2,152.7,245.8,153,245.5,153z M269,153c0.3,0,0.3-0.3,0-0.3C269,152.7,269,152.7,269,153z M252.2,153c0.3,0,0.6,0.3,0.6,0
			c-0.3,0,0,0,0.3,0c0-0.3-0.3-0.3-0.3-0.3C252.5,152.7,252.5,153,252.2,153z M267.5,153.3l0.3-0.6
			C267.5,153,267.2,153.3,267.5,153.3z M245.8,153.6C245.8,153.9,245.8,153.6,245.8,153.6c0.3,0.3,0.3,0.6,0.3,0.6
			c0,0.3,0.3,0.3,0.3,0.3v0.3c0.3,0.3,0.3,0.3,0.6,0.6c0-0.3-0.3-0.6-0.6-0.6c0,0,0,0-0.3-0.3c0,0,0,0,0-0.3c0,0-0.3,0-0.3-0.3l0,0
			C246.1,153.9,245.8,153.6,245.8,153.6c0-0.3-0.3-0.6-0.3-0.6l0,0C245.5,153.3,245.8,153.6,245.8,153.6z M268.7,153.3
			C269,153,268.7,153.3,268.7,153.3L268.7,153.3z M269.3,153.3C269.3,153,269,153,269.3,153.3C269,153.3,269.3,153.3,269.3,153.3z
			 M245.5,153.3C245.2,153.3,245.2,153.3,245.5,153.3L245.5,153.3z M251.6,153.9c0,0,0.6,0.3,0.6,0h-0.3c0.6,0,0-0.3,0.6,0
			c-0.3-0.3,0,0,0.3-0.3C252.2,153.3,251.6,153.6,251.6,153.9z M255.5,160.6c-0.3-0.3-0.6-0.6-0.6-0.6l0,0c-0.3,0-0.3-0.3-0.6-0.3
			l-0.3-0.3c-0.6-0.6-1.5-0.9-2.1-1.2c-0.6-0.3-1.5-0.9-1.8-1.2l-0.3-0.3c-0.3-0.3-0.6-0.3-0.6-0.6c-0.6-0.3-0.9-0.9-1.5-1.2
			c-0.3-0.3-0.6-0.6-0.9-0.9c0,0-0.3,0-0.3-0.3c0,0-0.3-0.3-0.3-0.6c0.3,0.3,0.6,0.9,0.6,0.9v0.3c0,0.3,0.3,0.3,0.6,0.6l0.3,0.3
			c0,0,0,0.3,0.3,0.3c0,0.3,0.3,0.3,0.3,0.3c0.6,0.6,1.2,1.2,1.8,1.5c1.2,0.6,2.4,1.2,3.3,1.8c1.2,0.6,2.1,1.2,3,2.1
			C256.4,161.2,255.8,160.9,255.5,160.6z M269,153.6L269,153.6C268.7,153.6,269,153.9,269,153.6z M266.9,154.2
			C267.2,153.9,267.2,153.9,266.9,154.2L266.9,154.2z M246.1,154.5c0-0.3-0.3-0.6-0.3-0.3C246.1,154.2,245.8,154.5,246.1,154.5z
			 M246.7,155.4c0,0,0.3,0,0.3,0.3c0,0.3,0.3,0.3,0.3,0.3c-0.6-0.3-0.6-0.9-1.2-1.2C246.1,154.8,246.7,155.1,246.7,155.4z
			 M255.8,161.8c0,0.3,0.3,0.6,0.6,0.6c0-0.3,0-0.3-0.3-0.3C256.1,162.1,256.1,161.8,255.8,161.8L255.8,161.8
			c-0.3-0.3-0.6-0.6-0.6-0.9c0.6,0.3,0.9,0.9,1.2,1.2c0-0.3-0.3-0.3-0.6-0.6c-0.3-0.3-0.6-0.3-0.6-0.6c-0.3,0-0.6-0.3-0.9-0.6
			c-0.3,0-0.3-0.3-0.6-0.3s-0.6-0.3-0.6-0.3s-0.3,0-0.3-0.3c0,0,0,0-0.3,0c-0.3,0-0.3-0.3-0.6-0.3c-0.3,0-0.3-0.3-0.6-0.3
			c-0.3-0.3-0.6-0.3-0.9-0.6c-0.3,0-0.3-0.3-0.6-0.3c-0.3,0-0.6-0.3-0.6-0.3s0,0,0-0.3c0,0,0,0-0.3,0c0,0,0,0,0-0.3c0,0,0,0-0.3,0
			c0,0,0,0,0-0.3c0,0-0.3,0-0.3-0.3c-0.3-0.3-0.6-0.6-0.9-0.6c0,0-0.3-0.3-0.6-0.3c0,0-0.3-0.3-0.3,0c0.6,0.3,0.9,0.9,1.2,1.2
			c0.3,0,0.6,0.3,0.6,0.3s0.3,0,0.3,0.3c0,0,0.3,0,0.3,0.3c0,0,0.3,0,0.3,0.3c0.3,0.3,0.3,0.3,0.6,0.3c0.6,0.3,1.2,0.6,1.5,0.9
			c0.3,0.3,0.9,0.3,0.9,0.6c0,0,0,0,0.3,0c0.3,0,0.3,0.3,0.6,0.3c0.3,0.3,0.6,0.3,0.9,0.6c0,0,0.6,0.3,0.3,0.6
			c-0.9-0.9-2.4-1.5-3.3-2.1c-0.3-0.3-0.9-0.6-1.2-0.6c-0.3-0.3-0.9-0.6-1.2-0.6c0,0,0-0.3-0.3-0.3C251,159.1,254,160,255.8,161.8z
			 M248.6,157L248.6,157c-0.6-0.3-0.6-0.6-0.9-0.9c0,0.3,0.3,0.6,0.6,0.6c0.3,0.3,0.6,0.3,0.6,0.6C248.9,157,248.6,157,248.6,157z
			 M249.2,158.2C249.5,158.2,249.5,157.9,249.2,158.2C249.2,157.9,249.2,157.9,249.2,158.2z M248.9,159.4l0.3-0.3h0.3
			c-0.6,0,0-0.3,0-0.3C249.2,158.8,248.9,159.1,248.9,159.4z M248.9,159.7c0.3,0.3-0.3,0.6,0,1.2c0,0.3,0,0.3,0.3,0.3
			c-0.3-0.3,0-0.3,0-0.6C249.2,160,249.2,160,248.9,159.7c0.3,0,0.6,0,0.6-0.3C249.2,159.1,249.2,159.7,248.9,159.7z M257,158.5
			C257,158.5,256.7,158.5,257,158.5C256.4,158.5,257,158.5,257,158.5z M249.5,160L249.5,160C249.2,159.7,249.2,160,249.5,160z
			 M257.6,160.9l0.3-0.3C257.9,160.9,257.6,160.9,257.6,160.9z M257.3,161.5c0-0.3,0.3-0.3,0.3-0.3
			C257.3,161.2,257,161.5,257.3,161.5z M257,161.8C257,161.5,256.7,161.8,257,161.8L257,161.8z M256.7,162.1L256.7,162.1
			C256.7,162.1,256.4,162.1,256.7,162.1z M257.6,123.2C257.6,123.2,257.6,122.9,257.6,123.2C257.3,122.9,257.6,123.2,257.6,123.2z
			 M258.2,129.9C257.9,129.9,257.9,129.9,258.2,129.9c0.3,0,0.6-0.3,0.3-0.3C258.2,129.6,258.5,129.9,258.2,129.9z M260,126.9
			C260,126.9,260.3,126.9,260,126.9c0-0.3,0-0.3,0-0.3v-0.3c-0.3-0.3-0.3-0.9-0.3-0.9c0-0.3-0.3-0.6-0.3-0.9
			c-0.6-0.3-0.9-0.9-1.5-1.2h-0.3c0,0-0.3,0,0,0c0,0,0.3,0,0.3,0.3c0,0,0,0.3,0.3,0.3c0-0.3,0.3,0.3,0.3,0.3c-0.3,0,0.3,0.3,0.3,0.3
			c0.3,0,0.3,0,0.6,0.3c0.3,0.3,0.6,0.9,0.6,1.5c0,0,0,0,0,0.3c-0.3,0,0-0.3,0-0.3s0,0-0.3-0.3v-0.3l0,0c0,0.3,0.3,0.6,0.3,0.6
			s0,0.3,0.3,0.3v0.3v-0.3C260,126.3,260,126.6,260,126.9z M258.2,123.6l-0.3-0.3C258.2,123.2,258.2,123.6,258.2,123.6z
			 M259.4,125.7c0-0.3,0-0.3-0.3-0.6C259.4,125.4,259.4,125.4,259.4,125.7z M259.4,126C259.7,125.7,259.4,125.7,259.4,126L259.4,126
			z M259.7,126.6v-0.3c0,0.3,0,0.6,0,0.6l0,0c0,0,0,0,0,0.3c0,0,0,0,0,0.3c0,0.3,0,0.3,0,0.3s0,0,0,0.3
			C259.4,127.5,259.7,126.9,259.7,126.6z M260,127.2C260,126.9,260,126.9,260,127.2L260,127.2z M260,127.8c0-0.3,0.3-0.6,0-0.6
			C260,127.2,259.7,127.5,260,127.8z M257.6,127.8C257.6,127.8,257.3,127.8,257.6,127.8C257.3,127.8,257.3,127.8,257.6,127.8z
			 M257.3,128.4v-0.3c0,0.3,0,0.6,0,0.9C257.6,129.3,257.6,128.7,257.3,128.4l0.3-0.3v-0.3C257.6,128.1,257.6,128.4,257.3,128.4z
			 M259.4,128.4c0.3,0,0.6-0.9,0.3-0.6C259.7,128.1,259.7,128.1,259.4,128.4z M259.1,128.1C259.1,128.1,259.4,128.1,259.1,128.1
			C259.1,127.8,259.1,128.1,259.1,128.1L259.1,128.1z M258.8,128.7C258.8,128.7,258.8,128.4,258.8,128.7L258.8,128.7z M259.1,129
			C259.4,129,259.4,129,259.1,129C259.4,129,259.4,128.7,259.1,129C259.1,129,259.1,129.3,259.1,129z M258.5,129L258.5,129
			C258.5,129.3,258.5,129,258.5,129z M258.5,129.3C258.2,129.6,258.5,129.3,258.5,129.3C258.8,129.3,258.8,129.3,258.5,129.3
			L258.5,129.3z M257.6,129.9C257.6,129.6,257.6,129.6,257.6,129.9L257.6,129.9C257.3,129.6,257.6,129.9,257.6,129.9z M257.6,129.9
			C257.6,129.9,257.3,129.9,257.6,129.9C257.3,129.9,257.6,129.9,257.6,129.9z M257.6,130.5v-0.6
			C257.6,130.2,257.6,130.8,257.6,130.5z M258.8,130.5c0,0,0-0.6,0-0.3V130.5z M257.9,125.4C258.2,125.7,258.2,125.1,257.9,125.4
			L257.9,125.4z M258.2,125.4C258.2,125.4,258.2,125.7,258.2,125.4C258.5,126.3,258.5,125.7,258.2,125.4z M258.5,126.3
			C258.5,126.3,258.5,126,258.5,126.3L258.5,126.3z M258.5,126.9C258.5,126.9,258.5,126.6,258.5,126.9
			C258.5,126.9,258.5,127.2,258.5,126.9z"/>
		<path id="XMLID_46_" class="st1" d="M265.4,154.8c-0.3,0.3-0.6,0.6-0.9,0.9c0,0,0,0,0.3-0.3C264.8,155.1,264.8,154.8,265.4,154.8z
			"/>
		<path id="XMLID_45_" class="st1" d="M258.2,124.5C258.5,124.2,258.5,124.8,258.2,124.5C258.5,124.8,258.5,124.5,258.2,124.5z"/>
		<path id="XMLID_44_" class="st1" d="M258.2,124.8C257.9,124.8,258.2,124.8,258.2,124.8L258.2,124.8
			C258.5,125.1,258.2,125.1,258.2,124.8z"/>
		<path id="XMLID_43_" class="st1" d="M253.1,125.1C253.1,125.1,253.1,124.8,253.1,125.1L253.1,125.1L253.1,125.1z"/>
		<path id="XMLID_42_" class="st1" d="M259.1,127.2c0.3,0,0,0.3,0,0.3c0,0.3-0.3,0.6-0.6,0.9c-0.3,0,0.3-0.3,0.3-0.3
			C258.8,127.8,258.8,127.5,259.1,127.2z"/>
		<path id="XMLID_41_" class="st1" d="M253.1,128.1l0.3,0.3C253.1,128.4,253.1,128.1,253.1,128.1z"/>
		<path id="XMLID_40_" class="st1" d="M249.8,131.4L249.8,131.4c0.3,0,0.6-0.3,0.6-0.3c0.3,0,0.6,0,0.3,0
			C250.4,131.4,250.1,131.4,249.8,131.4z"/>
		<path id="XMLID_39_" class="st1" d="M244.6,150.9C244.9,150.9,244.9,150.9,244.6,150.9C244.9,151.2,244.6,150.9,244.6,150.9z"/>
		<path id="XMLID_38_" class="st1" d="M244.6,150.3C244.6,150.3,244.3,150.3,244.6,150.3C244.6,150,244.6,150.6,244.6,150.3z"/>
		<path id="XMLID_37_" class="st1" d="M251.6,155.4c0.6-0.3,1.2,0,1.5-0.6c0.6-0.6,0.9-1.2,0.9-2.1c0,0.3,0,0.6,0,0.9
			c0,0,0,0.3-0.3,0.3c0,0,0,0,0,0.3l0,0c-0.3,0.3-0.3,0.3-0.6,0.6l-0.3,0.3h-0.3c0,0-0.3,0.3-0.6,0.3
			C252.2,155.4,251.9,155.1,251.6,155.4z"/>
		<path id="XMLID_34_" class="st1" d="M254.3,153.9c0-0.3,0-0.9,0.6-0.9v0.3c0,0,0-0.6,0.3-0.6v0.3c0.3,0,0-0.3,0-0.6
			c0,0,0-0.3,0.3-0.3c0,0,0,0,0.3,0c0,0,0-0.3,0.3-0.3c0,0.3,0,0.3,0,0.6c0,0-0.3,0.3-0.3,0c0,0,0,0,0,0.3c-0.3,0-0.3,0.3-0.6,0.3
			c0,0.3,0,0.3,0.3,0.3l-0.3,0.3c0,0,0,0.3-0.3,0.6c-0.3,0.3-0.6,0.6-0.9,0.6c-0.3,0.3-0.9,0.3-1.5,0.3c-0.3,0,0,0,0,0h0.3
			c0.6,0,1.2-0.3,1.5-0.6c0.3-0.3,0.6-0.6,0.6-0.9C254.3,154.2,254.3,153.9,254.3,153.9C254.3,153.6,254.3,153.9,254.3,153.9z
			 M255.2,153C255.2,153,255.2,152.7,255.2,153C255.2,153,255.2,153.3,255.2,153z"/>
		<path id="XMLID_33_" class="st1" d="M247,154.2L247,154.2L247,154.2z"/>
		<path id="XMLID_32_" class="st1" d="M254.3,154.2c0,0.3-0.3,0.6-0.6,0.6c-0.3,0,0-0.3,0.3-0.3C254,154.2,254,153.9,254.3,154.2z"
			/>
		<path id="XMLID_31_" class="st1" d="M265.7,154.2c0,0-0.3,0.3-0.3,0.6C265.1,154.5,265.7,154.5,265.7,154.2z"/>
		<path id="XMLID_30_" class="st1" d="M254.9,154.2c0,0.3-0.3,0.6-0.3,0.9c-0.3,0,0-0.3,0.3-0.6
			C254.9,154.5,254.9,154.2,254.9,154.2z"/>
		<path id="XMLID_29_" class="st1" d="M247,154.5C247,154.2,247,154.5,247,154.5c0.9,0.6,1.5,1.5,2.4,1.8c-0.3,0-0.3-0.3-0.6-0.3
			c-0.3-0.3-0.3-0.3-0.6-0.6c0,0-0.3,0-0.3-0.3C247.6,155.1,247.3,154.5,247,154.5z"/>
		<path id="XMLID_28_" class="st1" d="M255.2,154.5c0.3,0.3-0.3,0.6-0.6,0.9c0,0,0-0.3,0.3-0.3C254.9,154.8,255.2,154.8,255.2,154.5
			z"/>
		<path id="XMLID_27_" class="st1" d="M253.4,154.8c0,0-0.3,0.6-0.9,0.6C252.8,155.1,253.4,155.1,253.4,154.8z"/>
		<path id="XMLID_26_" class="st1" d="M255.2,155.4c0,0-0.3,0.3-0.3,0.6C254.6,155.8,254.9,155.8,255.2,155.4z"/>
		<path id="XMLID_25_" class="st1" d="M248.9,155.8C248.6,155.4,249.2,155.8,248.9,155.8C249.2,156.1,248.9,155.8,248.9,155.8z"/>
		<path id="XMLID_24_" class="st1" d="M264.2,155.8c0,0,0,0.3-0.3,0.3C263.9,155.8,264.2,156.1,264.2,155.8z"/>
		<path id="XMLID_23_" class="st1" d="M249.5,156.1C249.2,156.1,249.5,156.1,249.5,156.1L249.5,156.1
			C249.8,156.4,249.5,156.4,249.5,156.1z"/>
		<path id="XMLID_22_" class="st1" d="M255.2,156.1L255.2,156.1L255.2,156.1C254.9,156.4,254.9,156.1,255.2,156.1z"/>
		<path id="XMLID_21_" class="st1" d="M263.6,156.1c0,0-0.3,0.3-0.6,0.3C263,156.4,263.3,156.4,263.6,156.1z"/>
		<path id="XMLID_20_" class="st1" d="M262.7,156.7c-0.3,0-0.3,0.3-0.6,0.3C262.4,156.7,262.4,156.7,262.7,156.7z"/>
		<path id="XMLID_19_" class="st1" d="M262.7,156.7c0.3,0-0.3,0.3-0.3,0.3s-0.3,0.3-0.6,0.3C262.1,157,262.7,157,262.7,156.7z"/>
		<path id="XMLID_18_" class="st1" d="M257.6,157c0-0.3,0.3,0,0.6,0.3c0.3,0,0.3,0.3,0.6,0.3c0.3,0,0.6,0.3,0.9,0.3c0.3,0,0,0-0.3,0
			c0-0.3-0.3,0-0.3,0C258.5,157.3,258.2,157,257.6,157z"/>
		<path id="XMLID_17_" class="st1" d="M261.5,157L261.5,157C261.2,157,261.5,157,261.5,157z"/>
		<path id="XMLID_16_" class="st1" d="M250.1,157C250.4,157,250.4,157,250.1,157c1.2,0.6,2.1,1.2,3.3,1.8c0.3,0,0.3,0.3,0.6,0.3
			c0,0,0.3,0.3,0.6,0.3h0.3c0,0,0,0,0,0.3h0.3c0,0,0,0,0.3,0.3h0.3c0,0,0,0,0,0.3h0.3c0,0,0,0,0.3,0.3c0,0,0.3,0,0.3,0.3
			c-0.3,0-0.3,0-0.3-0.3c0,0-0.3,0-0.3-0.3l-0.3-0.3c0,0-0.3,0-0.3-0.3c-0.3-0.3-0.6-0.3-0.6-0.6C252.8,158.5,251.3,157.9,250.1,157
			z"/>
		<path id="XMLID_15_" class="st1" d="M250.7,157c0-0.3,0.3,0,0.3,0C251,157.3,250.7,157,250.7,157z"/>
		<path id="XMLID_14_" class="st1" d="M255.2,157c0.3,0-0.3,0.3-0.3,0.3S255.2,157.3,255.2,157z"/>
		<path id="XMLID_13_" class="st1" d="M251.3,157.3c-0.3-0.3,0.3,0,0.6,0.3C251.6,157.6,251.3,157.3,251.3,157.3z"/>
		<path id="XMLID_12_" class="st1" d="M251.9,157.6c0-0.3,0.3,0,0.3,0C252.2,157.9,251.9,157.9,251.9,157.6z"/>
		<path id="XMLID_11_" class="st1" d="M255.5,157.6c0,0.3-0.3,0.3-0.3,0.3C255.5,157.9,255.5,157.9,255.5,157.6z"/>
		<path id="XMLID_10_" class="st1" d="M252.5,157.9C252.2,157.9,252.5,157.9,252.5,157.9L252.5,157.9c0.3,0.3,0.9,0.3,0.3,0.3
			C252.8,158.2,252.5,158.2,252.5,157.9z"/>
		<path id="XMLID_9_" class="st1" d="M254,158.8c0-0.3,0.3,0,0.3,0.3L254,158.8z"/>
		<path id="XMLID_3_" class="st1" d="M256.4,134.7L256.4,134.7c0.3,0,0.3,0.6,0.3,0.6c0,0.6,0,1.2,0,2.1v-0.3v0.3c0,0,0.3,0,0.3,0.3
			c0,0.3-0.6,0-0.6,0.3s-0.3,0-0.3,0.3v0.3c0,0.3,0.3,0,0.3,0c0,0.3,0,0.6,0.3,0.6c0,0.3,0,0.6,0,0.9h-0.3c0.3,0-0.3,0.3-0.3,0.6
			c0,0.3,0,0.3,0,0.6c0,0,0,0.3,0,0V141c0-0.3,0-0.3,0-0.6c0,0,0.3,0.3,0.3,0.6c0,0.3,0.3,0.6,0.3,1.2l0.3-0.3c0.3,0.3,0,0.9,0,1.2
			c-0.3,0,0-0.3,0-0.3s0,0,0,0.3c-0.3,0,0-0.3-0.3-0.3c0-0.3,0-0.3,0-0.6c0-0.3,0-0.6,0-0.9c0,0,0.3-0.3,0-0.6l0,0v-0.3
			c0,0,0,0,0-0.3l0,0c0,0,0,0,0-0.3l0,0c0,0,0-0.3,0-0.6l0,0v-0.3C256.4,137.7,256.4,136.2,256.4,134.7z M256.4,135.9
			c0-0.3,0-0.9,0-0.6C256.4,135.6,256.4,136.2,256.4,135.9z M256.4,137.1c0-0.3,0-0.9,0-0.6V137.1z M256.4,138.3L256.4,138.3
			L256.4,138.3z M256.4,142.8C256.4,142.8,256.4,142.5,256.4,142.8L256.4,142.8z"/>
	</g>
	<g>
		<path class="st1" d="M193.2,207.8h-12.9l-5.1,14.1H173l13.8-38.2l13.8,38.2h-2.1L193.2,207.8z M192.3,205.7l-5.7-15.6l-5.7,15.6
			H192.3z"/>
	</g>
	<g>
		<path class="st1" d="M330.7,201.5c-2.7-0.9-4.8-2.1-6.3-3.6c-1.5-1.5-2.4-3.3-2.4-5.7c0-2.1,0.9-3.9,2.4-5.4
			c1.5-1.5,3.3-2.4,5.7-2.4c2.1,0,3.9,0.9,5.7,2.4c0.9,0.9,1.5,1.8,1.8,2.7l-1.8,0.6c-0.3-0.9-0.6-1.5-1.5-2.1
			c-1.2-1.2-2.4-1.8-4.2-1.8c-1.5,0-3,0.6-4.2,1.8c-1.2,1.2-1.8,2.4-1.8,4.2c0,1.5,0.6,3,1.8,4.2c1.2,0.9,2.4,2.1,4.5,3
			c3,0.9,5.4,2.4,7.5,4.5s3.3,4.8,3.3,7.8c0,3-1.2,5.7-3.3,7.8c-2.1,2.1-4.8,3.3-7.8,3.3s-5.7-1.2-7.8-3.3c-1.8-1.8-2.7-3.6-3-6
			l2.1-0.6c0.3,2.1,1.2,3.9,2.7,5.4c1.8,1.8,3.9,2.7,6.3,2.7s4.5-0.9,6.3-2.7c1.8-1.8,2.7-3.9,2.7-6.3c0-2.4-0.9-4.5-2.7-6.3
			C334.9,203.6,333.1,202.4,330.7,201.5z"/>
	</g>
	<path id="XMLID_383_" class="st1" d="M255.5,283.9h-1.2c0.6,0.3,1.2,0.9,1.8,1.5h1.8C257,285.2,256.1,284.6,255.5,283.9z"/>
	<path id="XMLID_380_" class="st1" d="M254.6,283.3h-1.2c0.6,0.3,1.2,0.9,1.8,1.5h1.8C256.1,284.6,255.2,283.9,254.6,283.3z
		 M258.2,284.9H257c1.2,0.6,2.4,0.9,2.4,0.9S258.8,285.5,258.2,284.9z"/>
	<path id="XMLID_372_" class="st1" d="M282.3,283.6c-8.7-0.3-11.1-0.6-11.1-0.6s-3-7.2-8.1-8.7c-5.1-1.5-4.2-3.6-4.2-3.6
		s1.5-2.1,4.5-0.3c3,1.8,4.2,2.7,5.4,2.7c1.2-0.3,0.9-1.8-0.6-2.7c-1.5-0.9-5.4-3-9.3-3c-3.9,0-8.7-3-8.7-3s-1.5-1.5-3.9-1.5
		c-2.4,0-4.2,0.9-5.4,1.8c-1.2,0.9-3.3,2.1-3.3,2.1l-0.6,0.9c0,0,3.3-0.9,4.8-0.6c1.5,0.3,4.5,2.1,4.5,2.7c0,0.6-0.3,2.4-0.9,3
		c-0.6,0.6-2.1,3.6-2.1,4.8c0,1.2,0,4.2,0.9,4.5c0.9,0.3,2.7,0,2.7-2.1c0-2.4-0.9-3.6,0.6-4.8c1.2-1.2,3.3,3.6,3.3,3.6
		s-0.3,3.3,0.3,5.1l-4.2,0.3c0,0-11.4,0-14.1,0.3c-2.7,0.3-12.3,3.3,0.9,4.8c13.2,1.5,30.1,0.9,38.5,0c8.4-0.9,10.5-0.9,13.5-2.1
		C288.6,286.1,291,283.9,282.3,283.6z M244,265.6c-0.3,0-0.6-0.3-0.6-0.9c0-0.3,0.3-0.9,0.6-0.9c0.3,0,0.6,0.3,0.6,0.9
		C244.6,265.3,244.3,265.6,244,265.6z M248,274.9c-0.9-0.6-0.9,0.6-1.5,1.2c-0.6,0.9,0,3,0,3s-0.3,2.7-0.9,2.7
		c-0.6,0.3-0.6-1.8-0.6-3c0-1.2,0.9-3,1.5-4.5c0.6-1.5,1.8-3,1.8-3l4.2,4.5C252.2,275.8,248.9,275.2,248,274.9z M249.8,281.2v-0.6
		c0,0,1.8,1.2,2.1,1.8c0.3,0.6,0.9,0.6,1.8,1.2h0.3h0.9c-0.3-0.3-0.6-0.6-0.6-0.9c-0.9-1.5-0.3-3-0.3-3c0.3,1.5,1.5,3,2.4,3.9
		c0.3,0.3,0.6,0.6,0.9,0.9c0.3,0.3,0.6,0.6,0.6,0.6s-0.6,0-1.5-0.6h-0.9c0.3,0.3,0.6,0.6,0.9,1.2c0.6,0.9,0,0.6-0.6,0.6
		c-0.3,0.3-0.9-0.3-2.4-1.8l0,0c-0.3-0.3-1.5-0.6-1.8-0.9C250.7,282.7,249.8,281.2,249.8,281.2z M266.6,288.5
		c-3.3,0.6-6.3,0.9-11.4,0.9c-5.1,0-15.6-0.6-20.8-0.9c-5.1-0.3-4.5-1.8-1.8-2.4c2.7-0.6,10.5-0.6,10.5-0.6l8.4-0.3
		c0.9,1.5,2.7,3,3.9,3c1.2,0,3.6-1.8,3.6-2.1c0.3-0.3,0.9-1.2,3.3-0.6c2.4,0.6,3.9,2.1,5.7,2.7l0,0
		C267.8,288.2,267.2,288.2,266.6,288.5z M267.5,285.8c-1.8-0.3-2.1-0.9-3-1.5c-0.3-0.3-0.6-0.3-0.9-0.3c-1.2-0.6-2.1,0.3-4.2,0.6
		c-0.9,0-1.5-0.3-2.1-0.9c-0.9-0.6-1.5-1.8-2.1-2.4c-0.9-0.9-0.6-3.3-2.4-6c-1.5-2.7-6-7.8-6-7.8s0-0.6,0.6-0.6s0.9,0,1.2-0.9
		s0.9-0.9,1.8-0.6c0.9,0.3,2.1,0.9,3.3,2.1c1.2,1.2,2.1,0.9,2.1,0.9s0.9-0.3,4.8,0c3.9,0.3,6,1.5,7.5,2.4s-0.6,1.2-1.5,0.3
		c-0.9-0.9-4.5-1.5-5.7-1.8c-1.2-0.3-2.7,0-3.6,0.9c-1.2,0.9,1.2,2.4,3.3,3.3c2.1,1.2,5.4,3.9,6.6,5.1c0.9,0.6,1.8,2.7,2.4,4.2
		c0.3,0.3,0.3,0.9,0.6,1.2c0.3,0.3,0.3,0.9,0.3,0.9C271.1,285.8,269.6,286.1,267.5,285.8z M284.4,287.3c-1.8,0-8.1,0-8.1,0l-3-1.5
		c-0.3-0.6-0.6-1.2-1.2-1.8c0,0,7.8-0.3,13.2,0C291,284.6,286.2,287.3,284.4,287.3z"/>
	<path id="XMLID_371_" class="st1" d="M257.6,285.2c0,0-0.6,0-1.5-0.6h0.9C257.3,285.2,257.6,285.2,257.6,285.2z"/>
	
		<rect id="XMLID_365_" x="254.8" y="73.2" transform="matrix(0.7071 -0.7071 0.7071 0.7071 -72.3171 242.4234)" class="st1" width="3.3" height="270.5"/>
	
		<rect id="XMLID_363_" x="123.9" y="206.8" transform="matrix(0.707 -0.7072 0.7072 0.707 -71.4791 244.3795)" class="st1" width="270.5" height="3.3"/>
</g>
</svg>
